<svg width="3181" height="2263" viewBox="0 0 3181 2263" fill="none" xmlns="http://www.w3.org/2000/svg">
<rect width="3181" height="2262.04" fill="#D4EDFF"/>
<rect y="160" width="3181" height="1942.47" fill="#D5EDFF"/>
<path d="M255.356 289.395C194.033 343.986 216.083 437.677 216.083 504.288C216.083 535.466 194.97 593.543 182.296 615.936C140.169 690.364 64.4873 743.494 52.9255 829.06C38.0199 939.373 71.6133 1150.5 262.864 1148.08C307.506 1147.52 355.527 1143.62 397.433 1131.5C471.235 1110.16 540.439 1075.58 617.768 1061.86C711.044 1045.32 805.047 1083.71 889.504 1107.41C1037.97 1149.06 1183.31 1160.06 1339.99 1139.24C1438.9 1126.1 1580.11 1102.4 1646.96 1037.32C1686.51 998.818 1702.9 951.713 1707.89 903.566C1713.09 853.397 1710.34 797.587 1682.77 751.018C1649.51 694.857 1586.15 648.537 1523.65 611.293C1433.43 557.528 1330.09 522.965 1225.06 490.139C1168.66 472.512 1112.45 455.594 1064.5 426.025C1001.68 387.28 952.658 337.954 886.328 301.997C827.635 270.179 758.998 239.624 689.384 224.396C606.331 206.229 505.886 212.645 422.268 225.28C361.455 234.47 297.046 252.281 255.356 289.395Z" fill="#DEF7BF"/>
<path d="M1851.47 388.576C1809.02 487.262 1851.47 798.965 1851.47 919.38C1851.47 975.741 1624.7 1354.97 1615.93 1395.45C1586.76 1529.99 1859.47 1555.5 1851.47 1710.18C1841.15 1909.6 1980.45 2061.11 2112.84 2056.75C2143.74 2055.73 2176.98 2048.68 2205.99 2026.77C2257.07 1988.19 2304.98 1925.68 2358.51 1900.88C2423.07 1870.97 2488.14 1940.37 2546.61 1983.21C2649.38 2058.51 2749.98 2078.39 2858.44 2040.76C2926.91 2017 3024.65 1974.16 3070.93 1856.52C3098.3 1786.92 3109.65 1701.76 3113.1 1614.73C3116.7 1524.03 3114.8 1423.15 3095.71 1338.96C3072.69 1237.44 3028.83 1153.7 2985.57 1086.38C2923.12 989.185 3058.28 743.329 2985.57 683.989C2946.53 652.125 2700.93 804.918 2667.74 751.465C2624.25 681.426 2713.66 495.087 2667.74 430.085C2627.11 372.569 2406.69 682.423 2358.51 654.896C2301.02 622.055 2281.06 365.735 2223.18 388.576C2043 324.292 1880.33 321.485 1851.47 388.576Z" fill="#DEF7BF"/>
<path d="M272.748 1532.41C235.071 1570.17 236.318 1621.8 236.699 1671.96C212.829 1745.37 202.103 1856.5 245.184 1925.34C318.773 2042.93 499.031 1999.85 607.722 1969.15C682.603 1947.99 751.814 1902.99 828.228 1888.17C910.385 1872.23 993.951 1887.21 1075 1901.78C1179.17 1920.49 1414.51 1957.91 1414.51 1780.98C1414.51 1706.23 1369.6 1635.27 1324.37 1579.87C1252.03 1491.28 1158.01 1494.41 1052.95 1509.18C940.135 1525.04 835.597 1565.73 723.812 1524.45C634.209 1491.36 556.862 1458.46 459.529 1466.04C392.824 1471.24 322.651 1482.41 272.748 1532.41Z" fill="#DEF7BF"/>
<path d="M335.289 319.852L362.196 454.536" stroke="#542A0B" stroke-width="19.9228" stroke-linecap="round"/>
<path d="M408.105 354.988L289.352 419.388" stroke="#542A0B" stroke-width="19.9228" stroke-linecap="round"/>
<path d="M1763.69 1844.18L1790.6 1978.86" stroke="#542A0B" stroke-width="19.9228" stroke-linecap="round"/>
<path d="M1836.51 1879.32L1717.75 1943.72" stroke="#542A0B" stroke-width="19.9228" stroke-linecap="round"/>
<path d="M260.555 1804.84L394.864 1810.33" stroke="#542A0B" stroke-width="19.9228" stroke-linecap="round"/>
<path d="M333.098 1743.3L328.186 1880.68" stroke="#542A0B" stroke-width="19.9228" stroke-linecap="round"/>
<path d="M1626.86 460.477L1761.16 465.964" stroke="#542A0B" stroke-width="19.9228" stroke-linecap="round"/>
<path d="M1699.41 398.934L1694.5 536.309" stroke="#542A0B" stroke-width="19.9228" stroke-linecap="round"/>
<path d="M2860.12 482.344L2966.85 398.783" stroke="#542A0B" stroke-width="19.9228" stroke-linecap="round"/>
<path d="M2877.46 387.594L2959.53 496.465" stroke="#542A0B" stroke-width="19.9228" stroke-linecap="round"/>
<path d="M2461.62 842.25L2568.36 758.689" stroke="#542A0B" stroke-width="19.9228" stroke-linecap="round"/>
<path d="M2478.96 747.5L2561.03 856.371" stroke="#542A0B" stroke-width="19.9228" stroke-linecap="round"/>
<path d="M817.301 606.867C642.702 673.43 564.817 782.673 494.98 866.679L800.56 1545.38L1245.53 1659.11L1429.71 1613.92C1438.15 1581.01 1460.1 1441.93 1480.36 1148.86C1627.71 1078.71 1656.85 838.718 1429.71 698.458C1157.41 530.311 957.202 553.532 817.301 606.867Z" fill="#EA762B" stroke="#542A0B" stroke-width="19.9228" stroke-linecap="round"/>
<path d="M865.418 775.623C309.905 761.149 383.551 1128.24 516.345 1225.5C516.345 1225.5 478.66 1631.9 516.345 1652.74C554.029 1673.59 1232.36 1684.01 1253.89 1652.74C1275.42 1621.48 1253.89 1208.59 1253.89 1208.59C1253.89 1208.59 1656.69 796.241 865.418 775.623Z" fill="#FECC96" stroke="#542A0B" stroke-width="19.9228"/>
<ellipse cx="785.542" cy="1104.7" rx="19.386" ry="19.826" fill="#542A0B"/>
<ellipse cx="938.749" cy="1107.31" rx="19.386" ry="19.826" fill="#542A0B"/>
<path d="M800.332 1188.04C816.163 1229.41 877.049 1295.23 924.541 1188.04" stroke="black" stroke-width="16.6023" stroke-linecap="round"/>
<path d="M1409.91 1246.67L1255.76 1253.98L1260.94 1368.3C1265.51 1368.09 1326.53 1361.1 1438.88 1355.78C1571.74 1333.11 1557.02 1235.61 1409.91 1246.67Z" fill="#FDCC94" stroke="#542A0B" stroke-width="19.9228" stroke-linecap="round"/>
<path d="M353.928 1257.26L508.076 1264.57L502.896 1378.89C498.328 1378.67 437.311 1371.69 324.954 1366.36C192.098 1343.7 206.816 1246.19 353.928 1257.26Z" fill="#FCCB93" stroke="#542A0B" stroke-width="19.9228" stroke-linecap="round"/>
<path d="M647.079 1827.49L649.571 1669.69L761.463 1671.54C761.389 1676.22 756.404 1738.8 754.587 1853.82C736.442 1990.31 640.701 1978.21 647.079 1827.49Z" fill="#FCC58C" stroke="#542A0B" stroke-width="19.9228" stroke-linecap="round"/>
<path d="M1080.29 1832.8L1080.77 1674.98L1191.7 1675.34C1191.69 1680.02 1187.53 1742.66 1187.18 1857.69C1170.91 1994.42 1075.86 1983.59 1080.29 1832.8Z" fill="#FBCB95" stroke="#542A0B" stroke-width="19.9228" stroke-linecap="round"/>
<path d="M2104.86 1650.04L2122.82 1492.06L2218.69 1528.91C2218.63 1532.56 2213.87 1581.32 2212.45 1670.95C2194.78 1777.27 2099 1767.48 2104.86 1650.04Z" fill="#FCC58C" stroke="#542A0B" stroke-width="19.9228" stroke-linecap="round"/>
<path d="M2343.64 1712.98L2364.47 1579.56L2462.12 1596.41C2462.07 1599.7 2449.02 1650.99 2447.74 1732C2430.76 1828.06 2338.09 1819.12 2343.64 1712.98Z" fill="#FCC58C" stroke="#542A0B" stroke-width="19.9228" stroke-linecap="round"/>
<path d="M2873.96 1802.53C2966.42 1838.73 3072.52 1613.79 2905.91 1444.5H2898.1C2849.82 1510.8 2730.94 1656.08 2730.94 1679.95C2730.94 1709.78 2781.49 1766.32 2873.96 1802.53Z" fill="#F99D4F" stroke="#542A0B" stroke-width="19.9228" stroke-linecap="round"/>
<path d="M2915.75 1454.58C2877.36 1267.28 2750.56 1236.18 2696.4 1236.18L2514.2 1603.8C2514.2 1669.27 2709.76 1701.34 2750.56 1684.38C2793.04 1666.72 2935.36 1550.28 2915.75 1454.58Z" fill="#F99D4F" stroke="#542A0B" stroke-width="19.9228" stroke-linecap="round"/>
<path d="M1709.31 1450.18C1646.3 1146.89 1952.88 1127.65 2057.96 1096.84L1989 1276.59V1374.18C1969.54 1386.66 1901.82 1411.41 1901.96 1409.46C1882.9 1421.89 1737.16 1514.31 1709.31 1450.18Z" fill="#F99D4F"/>
<path d="M2057.96 1096.84C1952.88 1127.65 1646.3 1146.89 1709.31 1450.18C1739.12 1518.83 1904.01 1408.1 1904.01 1408.1C1888.25 1416.32 1967.65 1387.87 1989 1374.18V1276.59L2057.96 1096.84Z" stroke="#542A0B" stroke-width="19.9228" stroke-linecap="round"/>
<path d="M2058.37 1078.98C2136.51 1046.8 2225.22 1062.22 2259.81 1073.95C2015.64 1219.79 2126.91 1477.91 2133.01 1477.91C2139.12 1477.91 1997.33 1501.42 1881.35 1410.89C1820.31 1290.2 1889.77 1148.44 2058.37 1078.98Z" fill="#F99D4F" stroke="#542A0B" stroke-width="19.9228" stroke-linecap="round"/>
<path d="M2713.41 1244.4C2637.78 1044.81 2355.59 1029.53 2245.62 1063.1C2078.2 1209.14 2092.97 1385.4 2117.59 1460.94C2176.68 1573.75 2408.12 1601.95 2516.45 1601.95C2519.73 1596.91 2658.49 1523.81 2713.41 1244.4Z" fill="#F99D4F" stroke="#542A0B" stroke-width="19.9228" stroke-linecap="round"/>
<ellipse cx="19.4308" cy="19.7821" rx="19.4308" ry="19.7821" transform="matrix(0.946111 0.323843 -0.311033 0.950399 2306.13 1224.77)" fill="#542A0B"/>
<ellipse cx="19.4308" cy="19.7821" rx="19.4308" ry="19.7821" transform="matrix(0.946111 0.323843 -0.311033 0.950399 2450.59 1276.96)" fill="#542A0B"/>
<path d="M2306.52 1333.69C2308.69 1378.06 2346 1460.24 2424.3 1374.01" stroke="#542A0B" stroke-width="16.6023" stroke-linecap="round"/>
<path d="M2704.88 1525.55L2640.18 1475.26L2676.08 1423.67C2678.75 1425.45 2720.4 1432.92 2778.74 1495.72C2844.61 1578.47 2790.27 1594.35 2704.88 1525.55Z" fill="#FCCB93" stroke="#542A0B" stroke-width="19.9228" stroke-linecap="round"/>
<path d="M2012.37 1318.33L2091.31 1338.02L2107.87 1277C2104.83 1276 2072.91 1247.63 1988.48 1240.87C1884.13 1240.71 1906.32 1293.87 2012.37 1318.33Z" fill="#FCCB93" stroke="#542A0B" stroke-width="19.9228" stroke-linecap="round"/>
</svg>
