<svg width="1480" height="1150" viewBox="0 0 1480 1150" fill="none" xmlns="http://www.w3.org/2000/svg">
<g clip-path="url(#clip0_373_666)">
<rect width="1480" height="1150" fill="#0A2481"/>
<path d="M955.488 668.089C916.684 556.528 727.515 579.81 675.13 614.734C662.712 622.111 669.956 694.769 675.13 730.175C683.861 765.422 708.695 855.706 738.186 934.866C767.677 1014.03 837.136 985.312 868.179 961.059C874 939.07 970.04 702.043 955.488 668.089Z" fill="white" stroke="black" stroke-width="9.70099"/>
<path d="M815.792 248.045C763.795 244.941 719.752 401.968 704.23 480.869L815.792 573.999L938.024 480.869C918.946 404.555 867.789 251.15 815.792 248.045Z" fill="white" stroke="black" stroke-width="9.70099"/>
<path d="M345.746 643.858C316.255 615.919 261.671 613.462 238.065 615.725C228.364 627.367 173.069 688.483 167.248 729.227C162.591 761.822 201.203 791.313 229.334 771.911L352.537 674.902C354.8 672.638 356.611 663.26 345.746 643.858Z" fill="white" stroke="black" stroke-width="9.70099"/>
<path d="M237.611 325.652C202.687 324.876 201.717 444.328 205.597 504.15C253.714 549.939 301.314 511.588 319.099 486.689C308.428 440.771 277.191 344.278 237.611 325.652Z" fill="white" stroke="black" stroke-width="9.70099"/>
<path d="M198.264 510.188C156.635 514.085 157.149 536.489 162.609 547.204C165.179 557.27 177.449 584.416 205.973 612.47C250.685 656.11 396.129 678.06 463.262 683.58L960.495 694.296C1040.8 694.296 1206.03 692.153 1224.53 683.58C1247.66 672.865 1264.04 655.331 1273.67 616.367C1262.11 588.312 1225.17 573.506 1208.15 569.609C1204.61 565.388 1191.38 549.932 1166.71 521.878C1118.92 485.251 1013.17 478.042 966.276 479.017C765.52 481.614 355.335 486.809 320.645 486.809C305.227 503.369 250.3 505.318 198.264 510.188Z" fill="white" stroke="black" stroke-width="9.70099"/>
<path d="M825.657 632.379L833.072 601.389L812.088 601.575C811.849 602.265 809.41 611.775 803.513 628.74C799.596 649.987 818.7 654.888 825.657 632.379Z" fill="#FCC58C" stroke="#542A0B" stroke-width="6.36247" stroke-linecap="round"/>
<path d="M864.145 633.358L869.319 606.787L849.369 603.084C849.152 603.708 848.133 614.276 842.804 629.608C839.461 648.879 857.906 653.718 864.145 633.358Z" fill="#FCC58C" stroke="#542A0B" stroke-width="6.36247" stroke-linecap="round"/>
<path d="M966.208 611.92C986.492 612.224 991.426 562.431 947.715 542.306L946.212 542.856C941.485 558.729 928.609 594.431 930.251 598.922C932.305 604.536 945.923 611.615 966.208 611.92Z" fill="#F99D4F" stroke="#542A0B" stroke-width="6.36247" stroke-linecap="round"/>
<path d="M950.307 543.514C930.03 510.975 903.49 514.047 893.067 517.86L883.309 599.854C887.815 612.172 927.653 604.441 934.337 598.378C941.295 592.067 960.668 560.14 950.307 543.514Z" fill="#F99D4F" stroke="#542A0B" stroke-width="6.36247" stroke-linecap="round"/>
<path d="M717.851 627.601C684.853 574.968 742.522 549.771 760.622 536.576L759.724 575.253L766.44 593.614C763.554 597.333 752.227 606.755 752.119 606.378C749.308 610.059 727.625 637.707 717.851 627.601Z" fill="#F99D4F" stroke="#542A0B" stroke-width="6.36247" stroke-linecap="round"/>
<path d="M759.474 533.183C772.294 521.628 790.426 518.285 797.89 518.059C760.943 562.685 800.118 603.42 801.293 602.99C802.467 602.561 776.801 616.963 748.253 608.094C728.2 589.681 731.81 558.119 759.474 533.183Z" fill="#F99D4F" stroke="#542A0B" stroke-width="6.36247" stroke-linecap="round"/>
<path d="M896.909 518.21C868.62 485.98 813.266 502.967 794.415 517.024C772.25 556.287 787.223 588.412 797.16 600.892C816.294 617.958 862.769 606.974 883.615 599.349C883.901 598.17 905.57 574.65 896.909 518.21Z" fill="#F99D4F" stroke="#542A0B" stroke-width="6.36247" stroke-linecap="round"/>
<circle cx="821.272" cy="547.036" r="3.97211" transform="rotate(-1.58655 821.272 547.036)" fill="#542A0B"/>
<circle cx="852.651" cy="546.697" r="3.97211" transform="rotate(-1.58655 852.651 546.697)" fill="#542A0B"/>
<path d="M914.617 571.705L898.708 566.798L902.063 554.563C902.7 554.71 911.23 553.185 926.777 560.894C945.148 571.829 935.784 578.641 914.617 571.705Z" fill="#FCCB93" stroke="#542A0B" stroke-width="6.36247" stroke-linecap="round"/>
<path d="M767.096 581.467L783.642 579.616L782.629 566.97C781.976 566.995 773.881 563.904 757.168 568.576C737.079 575.889 745.006 584.33 767.096 581.467Z" fill="#FCCB93" stroke="#542A0B" stroke-width="6.36247" stroke-linecap="round"/>
<path d="M564.93 398.128C600.705 411.464 616.664 433.35 630.973 450.181L568.361 586.157L477.189 608.943L439.45 599.89C437.721 593.297 433.224 565.431 429.072 506.715C398.882 492.661 392.91 444.579 439.45 416.478C495.244 382.79 536.265 387.442 564.93 398.128Z" fill="#EA762B" stroke="#542A0B" stroke-width="6.36247" stroke-linecap="round"/>
<path d="M555.073 431.935C668.895 429.035 653.805 502.58 626.596 522.066C626.596 522.066 634.318 603.489 626.596 607.665C618.875 611.841 479.889 613.928 475.476 607.665C471.064 601.402 475.476 518.678 475.476 518.678C475.476 518.678 392.945 436.066 555.073 431.935Z" fill="#FECC96" stroke="#542A0B" stroke-width="6.36247"/>
<circle cx="3.97211" cy="3.97211" r="3.97211" transform="matrix(-1 0 0 1 575.406 493.895)" fill="#542A0B"/>
<circle cx="3.97211" cy="3.97211" r="3.97211" transform="matrix(-1 0 0 1 544.023 494.414)" fill="#542A0B"/>
<path d="M565.212 528.075C581.099 518.277 554.071 514.846 544.038 513.955C534.005 513.064 549.325 537.873 565.212 528.075Z" stroke="#542A0B" stroke-width="5.30206" stroke-linecap="round"/>
<path d="M443.512 526.315L475.097 527.779L474.035 550.683C473.099 550.64 460.597 549.241 437.575 548.174C410.354 543.633 413.369 524.098 443.512 526.315Z" fill="#FDCC94" stroke="#542A0B" stroke-width="6.36247" stroke-linecap="round"/>
<path d="M659.878 528.428L628.294 529.892L629.356 552.797C630.291 552.753 642.794 551.354 665.815 550.287C693.037 545.747 690.021 526.212 659.878 528.428Z" fill="#FCCB93" stroke="#542A0B" stroke-width="6.36247" stroke-linecap="round"/>
<path d="M599.814 642.677L599.303 611.063L576.377 611.433C576.392 612.37 577.414 624.909 577.786 647.952C581.504 675.298 601.121 672.873 599.814 642.677Z" fill="#FCC58C" stroke="#542A0B" stroke-width="6.36247" stroke-linecap="round"/>
<path d="M511.055 643.739L510.956 612.121L488.227 612.193C488.23 613.129 489.081 625.68 489.154 648.726C492.487 676.119 511.962 673.95 511.055 643.739Z" fill="#FBCB95" stroke="#542A0B" stroke-width="6.36247" stroke-linecap="round"/>
<path d="M847.831 570.518C854.709 558.6 834.674 566.35 827.395 569.466C820.116 572.581 840.952 582.435 847.831 570.518Z" stroke="#542A0B" stroke-width="4.24165" stroke-linecap="round"/>
<path d="M1171.38 533.254L1115.45 580.38C1115.45 580.38 1091.77 609.892 1133.49 614.742C1173.26 604.071 1200.61 572.42 1205.27 569.148" stroke="black" stroke-width="9.70099"/>
<path d="M199.984 277.617L225.594 223.814" stroke="#FFD966" stroke-width="9.17711" stroke-linecap="round"/>
<path d="M188.109 237.559L241.999 262.986" stroke="#FFD966" stroke-width="9.17711" stroke-linecap="round"/>
<path d="M185.426 257.789L241.937 238.891" stroke="#FFD966" stroke-width="9.17711" stroke-linecap="round"/>
<path d="M496.941 138.457L492.989 79.0007" stroke="#FFD966" stroke-width="9.17711" stroke-linecap="round"/>
<path d="M467 109.305L526.443 105.152" stroke="#FFD966" stroke-width="9.17711" stroke-linecap="round"/>
<path d="M474.543 128.273L514.61 84.1677" stroke="#FFD966" stroke-width="9.17711" stroke-linecap="round"/>
<path d="M1359.37 441.527L1355.42 382.071" stroke="#FFD966" stroke-width="9.17711" stroke-linecap="round"/>
<path d="M1329.44 412.375L1388.88 408.222" stroke="#FFD966" stroke-width="9.17711" stroke-linecap="round"/>
<path d="M1336.98 431.348L1377.04 387.242" stroke="#FFD966" stroke-width="9.17711" stroke-linecap="round"/>
<path d="M1183.29 186.43L1126.4 168.718" stroke="#FFD966" stroke-width="9.17711" stroke-linecap="round"/>
<path d="M1145.32 203.871L1162.84 146.917" stroke="#FFD966" stroke-width="9.17711" stroke-linecap="round"/>
<path d="M1165.73 203.66L1139 150.404" stroke="#FFD966" stroke-width="9.17711" stroke-linecap="round"/>
<path d="M194.867 912.012L190.887 850.393" stroke="#FFD966" stroke-width="9.17711" stroke-linecap="round"/>
<path d="M163.941 881.844L225.469 877.429" stroke="#FFD966" stroke-width="9.17711" stroke-linecap="round"/>
<path d="M171.504 900.996L213.052 855.207" stroke="#FFD966" stroke-width="9.17711" stroke-linecap="round"/>
<path d="M1311.91 915.5L1259.5 883.134" stroke="#FFD966" stroke-width="9.17711" stroke-linecap="round"/>
<path d="M1269.35 923.285L1301.68 870.574" stroke="#FFD966" stroke-width="9.17711" stroke-linecap="round"/>
<path d="M1289.85 928.301L1276.88 867.965" stroke="#FFD966" stroke-width="9.17711" stroke-linecap="round"/>
<path d="M595.91 1025.5L543.502 993.134" stroke="#FFD966" stroke-width="9.17711" stroke-linecap="round"/>
<path d="M553.352 1033.29L585.68 980.574" stroke="#FFD966" stroke-width="9.17711" stroke-linecap="round"/>
<path d="M573.852 1038.3L560.887 977.965" stroke="#FFD966" stroke-width="9.17711" stroke-linecap="round"/>
</g>
<defs>
<clipPath id="clip0_373_666">
<rect width="1480" height="1150" fill="white"/>
</clipPath>
</defs>
</svg>
