<?xml version="1.0" standalone="no"?>
<!DOCTYPE svg PUBLIC "-//W3C//DTD SVG 1.1//EN" "http://www.w3.org/Graphics/SVG/1.1/DTD/svg11.dtd" >
<!--
Created with mf2outline.
-->
<svg xmlns="http://www.w3.org/2000/svg" xmlns:xlink="http://www.w3.org/1999/xlink" version="1.1">
<metadata>
Created by FontForge 20201107 at Fri Sep 22 19:34:53 2023
 By 
Copyright (c) 2023, Metaflop (http://www.metaflop.com), Simon Egli, Marco Mueller, Alexis Reigel, with Reserved Font Name Bespoke. Dual licensed under the GPL v3 (http://www.gnu.org/copyleft/gpl.html) and the OFL v1.1 (http://scripts.sil.org/OFL_web).
</metadata>
<defs>
<font id="Bespoke-l97t9daAG8" horiz-adv-x="922" >
  <font-face 
    font-family="Bespoke"
    font-weight="500"
    font-stretch="normal"
    units-per-em="1000"
    panose-1="2 0 5 3 0 0 0 0 0 0"
    ascent="800"
    descent="-200"
    x-height="783"
    cap-height="900"
    bbox="-206 -327 1799 1224"
    underline-thickness="50"
    underline-position="-100"
    unicode-range="U+0020-FB04"
  />
    <missing-glyph />
    <glyph glyph-name="fi" unicode="fi" horiz-adv-x="912" 
d="M70 693l1 90h168l1 49c1 44 30 82 69 103c58 31 125 36 191 36h58c102 0 225 -20 250 -110l-100 -29c0 19 -20 30 -39 36c-36 12 -75 13 -113 13h-58c-38 0 -77 -1 -114 -13c-20 -6 -40 -17 -40 -36l-1 -49h468l-16 -783h-104l14 693h-364l-14 -693h-104l14 693h-167z
" />
    <glyph glyph-name="guillemotright" unicode="&#x3e;&#x3e;" horiz-adv-x="912" 
d="M464 392l-260 -392h-117l260 392l-244 391h116zM832 392l-260 -392h-116l260 392l-244 391h116z" />
    <glyph glyph-name="guillemotleft" unicode="&#x3c;&#x3c;" horiz-adv-x="912" 
d="M211 392l245 -392h-116l-245 392l260 391h117zM580 392l244 -392h-116l-244 392l260 391h116z" />
    <glyph glyph-name="quotedblright" unicode="&#x2019;&#x2019;" horiz-adv-x="892" 
d="M170 608l151 292h112l-181 -292h-82zM655 900h113l-180 -292h-84z" />
    <glyph glyph-name="exclamdown" unicode="&#x21;&#x2018;" horiz-adv-x="531" 
d="M207 -300l17 847h105l-17 -847h-105zM282 828c20 0 40 -5 54 -19c13 -13 18 -33 18 -52c0 -21 -5 -41 -20 -56c-14 -14 -35 -19 -55 -19s-40 5 -54 19c-13 13 -17 32 -17 51c0 21 5 42 20 57c14 14 34 19 54 19z" />
    <glyph glyph-name="fl" unicode="fl" horiz-adv-x="960" 
d="M533 856c0 24 -55 25 -78 25h-30c-23 0 -80 -1 -80 -25l-1 -73h170l-2 -90h-170l-14 -693h-104l14 693h-168l1 90h168l2 73c1 35 19 67 49 85c41 25 90 30 137 30h30c69 0 145 -15 171 -70zM740 0l19 950h104l-19 -950h-104z" />
    <glyph glyph-name="questiondown" unicode="&#x3f;&#x2018;" horiz-adv-x="834" 
d="M434 547h104l-8 -412h-91c-55 0 -111 -11 -153 -48c-40 -35 -57 -86 -57 -140c0 -49 15 -97 51 -130c40 -37 97 -48 152 -48h78c55 0 111 11 153 48c10 8 18 18 25 28l82 -62c-9 -12 -19 -23 -31 -33c-63 -55 -148 -71 -231 -71h-78c-83 0 -167 16 -228 71
c-54 48 -77 121 -77 195c0 81 26 158 85 209c60 52 139 69 218 71zM492 828c20 0 40 -5 54 -19c13 -13 18 -33 18 -52c0 -21 -6 -41 -21 -56c-14 -14 -34 -19 -54 -19s-40 5 -54 19c-13 13 -18 32 -18 51c0 21 5 42 20 57c14 14 35 19 55 19z" />
    <glyph glyph-name="endash" unicode="&#x2d;&#x2d;" horiz-adv-x="912" 
d="M65 346l2 90h795l-1 -90h-796z" />
    <glyph glyph-name="emdash" unicode="&#x2013;&#x2d;" horiz-adv-x="1591" 
d="M65 346l2 90h1474l-1 -90h-1475z" />
    <glyph glyph-name="quotedblleft" unicode="&#x2018;&#x2018;" horiz-adv-x="892" 
d="M155 608l181 292h82l-151 -292h-112zM670 900h83l-151 -292h-113z" />
    <glyph glyph-name="ring" unicode="&#x2da;" horiz-adv-x="407" 
d="M234 750c41 0 82 18 82 61c0 17 -7 33 -20 43c-17 13 -39 16 -60 16h-30c-41 0 -82 -18 -82 -61c0 -42 39 -59 79 -59h31zM238 930c40 0 79 -6 110 -31c25 -21 38 -53 38 -86c0 -36 -13 -70 -41 -92c-32 -25 -72 -31 -112 -31h-31c-40 0 -80 6 -111 31
c-25 21 -37 53 -37 86c0 36 13 70 41 92c32 25 72 31 112 31h31z" />
    <glyph glyph-name="rcaron" unicode="&#x159;" horiz-adv-x="572" 
d="M116 0l16 783h104l-1 -88l12 18c42 59 111 91 183 91h74c54 0 108 -12 153 -37l-49 -85c-30 21 -68 32 -106 32h-74c-56 0 -110 -22 -144 -67c-42 -54 -53 -124 -54 -192l-9 -455h-105zM537 1194h115l-184 -180h-154l-177 180h115l140 -117z" />
    <glyph glyph-name="Eng" unicode="&#x14a;" horiz-adv-x="1213" 
d="M136 0l18 900h100l721 -755l15 755h105c-7 -338 -14 -678 -21 -1016c-1 -58 -24 -116 -70 -152c-54 -42 -123 -53 -191 -53h-59c-68 0 -137 11 -189 53c-24 20 -42 47 -52 76l98 36c6 -18 17 -33 32 -45c32 -24 73 -30 113 -30h58c40 0 81 6 114 30c27 20 41 52 42 85
l2 121l-717 750l-15 -755h-104z" />
    <glyph glyph-name="Q" unicode="Q" horiz-adv-x="1358" 
d="M1073 178c73 73 102 176 102 283c0 101 -27 202 -100 271c-79 75 -191 99 -301 99h-156c-110 0 -223 -24 -305 -99c-80 -74 -112 -181 -112 -293c0 -101 27 -202 100 -271c79 -75 191 -99 301 -99h156c80 0 163 13 233 49l-201 159h158zM1280 463
c0 -132 -37 -258 -127 -348l145 -115h-159l-66 53c-93 -55 -206 -74 -316 -74h-156c-138 0 -278 29 -378 122c-91 85 -127 210 -127 336c0 139 41 272 141 362c103 93 244 122 382 122h156c138 0 278 -29 378 -122c91 -85 127 -210 127 -336z" />
    <glyph glyph-name="Abreve" unicode="&#x102;" horiz-adv-x="1077" 
d="M19 0l487 900h100l451 -900h-116l-172 343h-459l-186 -343h-105zM828 1130c-1 -47 -25 -91 -65 -117c-53 -34 -117 -41 -180 -41h-60c-63 0 -127 7 -179 41c-39 26 -61 70 -60 117h83c-1 -25 17 -46 40 -57c36 -18 77 -21 117 -21h61c40 0 81 3 117 21c23 11 42 32 43 57
h83zM724 433l-176 350l-190 -350h366z" />
    <glyph glyph-name="i" unicode="i" horiz-adv-x="369" 
d="M132 0l16 783h104l-16 -783h-104zM201 1149c21 0 42 -5 56 -20c14 -14 19 -33 19 -53c0 -22 -6 -44 -21 -59s-36 -19 -57 -19s-41 4 -55 19c-14 14 -19 34 -19 54c0 22 6 43 21 58s35 20 56 20z" />
    <glyph glyph-name="quoteright" unicode="&#x2019;" horiz-adv-x="495" 
d="M285 900h113l-181 -292h-84z" />
    <glyph glyph-name="Gbreve" unicode="&#x11e;" horiz-adv-x="1387" 
d="M1271 0h-105l4 164c-18 -31 -42 -58 -70 -82c-95 -80 -220 -103 -343 -103h-156c-138 0 -278 29 -378 122c-91 85 -127 210 -127 336c0 139 41 272 141 362c103 93 244 122 382 122h156c138 0 278 -29 378 -122c33 -31 59 -67 78 -106l-94 -48c-15 32 -35 62 -62 87
c-79 75 -191 99 -301 99h-156c-110 0 -223 -24 -305 -99c-80 -74 -112 -181 -112 -293c0 -101 27 -202 100 -271c79 -75 191 -99 301 -99h156c107 0 218 15 305 79c71 52 109 138 111 226l3 175h-487l2 90h591zM725 1052c63 0 157 13 160 78h84c-1 -47 -25 -91 -65 -117
c-53 -34 -117 -41 -180 -41h-61c-63 0 -126 7 -178 41c-39 26 -61 70 -60 117h83c-1 -25 17 -46 40 -57c36 -18 77 -21 117 -21h60z" />
    <glyph glyph-name="Ohungarumlaut" unicode="&#x150;" horiz-adv-x="1358" 
d="M465 967l160 180h144l-197 -180h-107zM916 1147h144l-197 -180h-107zM774 831h-156c-110 0 -223 -24 -305 -99c-80 -74 -112 -181 -112 -293c0 -101 27 -202 100 -271c79 -75 191 -99 301 -99h156c110 0 223 24 305 99c80 74 112 181 112 293c0 101 -27 202 -100 271
c-79 75 -191 99 -301 99zM775 921c138 0 278 -29 378 -122c91 -85 127 -210 127 -336c0 -139 -41 -272 -141 -362c-103 -93 -244 -122 -382 -122h-156c-138 0 -278 29 -378 122c-91 85 -127 210 -127 336c0 139 41 272 141 362c103 93 244 122 382 122h156z" />
    <glyph glyph-name="racute" unicode="&#x155;" horiz-adv-x="572" 
d="M116 0l16 783h104l-1 -88l12 18c42 59 111 91 183 91h74c54 0 108 -12 153 -37l-49 -85c-30 21 -68 32 -106 32h-74c-56 0 -110 -22 -144 -67c-42 -54 -53 -124 -54 -192l-9 -455h-105zM479 1194h150l-212 -180h-111z" />
    <glyph glyph-name="udieresis" unicode="&#xfc;" 
d="M821 783l-16 -783h-104l1 78c-5 -7 -10 -14 -15 -20c-48 -55 -120 -79 -192 -79h-79c-84 0 -169 20 -228 79c-56 56 -76 136 -76 216v9l10 500h105l-10 -500v-7c0 -56 12 -111 50 -151c38 -41 95 -56 151 -56h78c56 0 114 15 154 56c41 42 55 100 56 158l10 500h105z
M298 1149c21 0 42 -5 56 -20c14 -14 19 -33 19 -53c0 -22 -6 -44 -21 -59s-36 -19 -57 -19s-41 4 -55 19c-14 14 -19 34 -19 54c0 22 6 43 21 58s35 20 56 20zM648 1149c21 0 41 -5 55 -20c14 -14 19 -33 19 -53c0 -22 -6 -44 -21 -59s-35 -19 -56 -19s-42 4 -56 19
c-14 14 -19 34 -19 54c0 22 6 43 21 58s36 20 57 20z" />
    <glyph glyph-name="slash" unicode="/" horiz-adv-x="728" 
d="M38 -45l551 990h119l-552 -990h-118z" />
    <glyph glyph-name="asciitilde" unicode="~" horiz-adv-x="951" 
d="M187 274h-104c1 59 18 118 61 159c44 42 106 56 166 56c124 0 224 -105 348 -105c33 0 65 8 88 32c24 25 32 59 33 93h104c-1 -59 -18 -118 -61 -159c-44 -42 -106 -56 -166 -56c-124 0 -223 105 -347 105c-33 0 -66 -8 -89 -32c-24 -25 -32 -59 -33 -93z" />
    <glyph glyph-name="section" unicode="&#xa7;" 
d="M229 -155c32 -56 111 -76 183 -76h78c54 0 109 8 153 40c37 27 56 70 56 116c0 43 -17 84 -51 110c-43 32 -97 40 -151 40h-79c-81 0 -163 11 -228 59c-51 37 -77 97 -77 161c0 68 30 132 84 171c18 13 37 24 57 32c-20 7 -38 16 -56 28c-49 33 -78 88 -78 148
c0 72 28 141 84 184c65 50 149 63 231 63h79c82 0 165 -13 228 -63c15 -12 27 -27 38 -42l-86 -59c-8 13 -18 24 -31 34c-43 32 -97 40 -151 40h-79c-54 0 -109 -8 -153 -40c-37 -27 -55 -70 -55 -116c0 -43 17 -84 51 -110c43 -32 97 -40 151 -40h79c81 0 163 -11 228 -59
c51 -37 77 -97 77 -161c0 -68 -30 -132 -84 -171c-18 -13 -37 -24 -57 -32c20 -7 38 -16 56 -28c49 -33 78 -88 78 -148c0 -72 -29 -141 -85 -184c-65 -50 -148 -63 -230 -63h-79c-82 0 -165 13 -228 63c-16 13 -29 28 -40 44zM504 435h-79c-53 0 -107 -6 -152 -35
c-35 -22 -56 -60 -56 -102c0 -39 20 -76 52 -98c44 -29 98 -35 151 -35h78c53 0 108 6 153 35c35 22 56 60 56 102c0 39 -20 76 -52 98c-44 29 -98 35 -151 35z" />
    <glyph glyph-name="guilsinglright" unicode="&#x203a;" horiz-adv-x="534" 
d="M454 392l-251 -392h-116l251 392l-235 391h116z" />
    <glyph glyph-name="Edieresis" unicode="&#xcb;" horiz-adv-x="902" 
d="M136 0l18 900h698l-2 -90h-594l-3 -171h542l-2 -90h-542l-9 -459h594l-2 -90h-698zM328 1102c21 0 41 -4 55 -19c14 -14 19 -34 19 -54c0 -22 -6 -43 -21 -58s-36 -20 -57 -20s-41 5 -55 20c-14 14 -19 33 -19 53c0 22 6 44 21 59s36 19 57 19zM677 1102
c21 0 41 -4 55 -19c14 -14 19 -34 19 -54c0 -22 -6 -43 -21 -58s-35 -20 -56 -20s-42 5 -56 20c-14 14 -19 33 -19 53c0 22 6 44 21 59s36 19 57 19z" />
    <glyph glyph-name="eng" unicode="&#x14b;" 
d="M443 -161c12 -45 56 -70 106 -70h43c31 0 63 8 85 30s30 54 31 85c4 205 8 411 12 616c0 4 1 7 1 11c0 52 -8 105 -38 147c-26 37 -70 56 -115 56h-78c-68 0 -137 -12 -190 -56c-47 -39 -68 -98 -69 -158l-10 -500h-105l16 783h104l-1 -91c8 12 17 23 28 33
c60 59 145 79 228 79h79c73 0 145 -24 191 -79c49 -58 64 -136 64 -213v-12c-4 -205 -9 -411 -13 -616c-1 -57 -17 -113 -59 -152c-44 -40 -104 -53 -163 -53h-43c-59 0 -118 13 -160 53c-22 21 -36 48 -44 76z" />
    <glyph glyph-name="r" unicode="r" horiz-adv-x="572" 
d="M116 0l16 783h104l-1 -88l12 18c42 59 111 91 183 91h74c54 0 108 -12 153 -37l-49 -85c-30 21 -68 32 -106 32h-74c-56 0 -110 -22 -144 -67c-42 -54 -53 -124 -54 -192l-9 -455h-105z" />
    <glyph glyph-name="u" unicode="u" 
d="M821 783l-16 -783h-104l1 78c-5 -7 -10 -14 -15 -20c-48 -55 -120 -79 -192 -79h-79c-84 0 -169 20 -228 79c-56 56 -76 136 -76 216v9l10 500h105l-10 -500v-7c0 -56 12 -111 50 -151c38 -41 95 -56 151 -56h78c56 0 114 15 154 56c41 42 55 100 56 158l10 500h105z" />
    <glyph glyph-name="Odieresis" unicode="&#xd6;" horiz-adv-x="1358" 
d="M522 1102c21 0 41 -4 55 -19c14 -14 19 -34 19 -54c0 -22 -6 -43 -21 -58s-36 -20 -57 -20s-41 5 -55 20c-14 14 -19 33 -19 53c0 22 6 44 21 59s36 19 57 19zM871 1102c21 0 41 -4 55 -19c14 -14 19 -34 19 -54c0 -22 -6 -43 -21 -58s-35 -20 -56 -20s-42 5 -56 20
c-14 14 -19 33 -19 53c0 22 6 44 21 59s36 19 57 19zM774 831h-156c-110 0 -223 -24 -305 -99c-80 -74 -112 -181 -112 -293c0 -101 27 -202 100 -271c79 -75 191 -99 301 -99h156c110 0 223 24 305 99c80 74 112 181 112 293c0 101 -27 202 -100 271
c-79 75 -191 99 -301 99zM775 921c138 0 278 -29 378 -122c91 -85 127 -210 127 -336c0 -139 -41 -272 -141 -362c-103 -93 -244 -122 -382 -122h-156c-138 0 -278 29 -378 122c-91 85 -127 210 -127 336c0 139 41 272 141 362c103 93 244 122 382 122h156z" />
    <glyph glyph-name="Zdotaccent" unicode="&#x17b;" horiz-adv-x="989" 
d="M65 810l1 90h893l-2 -100l-776 -710h762l-2 -90h-893l2 100l777 710h-762zM512 1102c21 0 41 -4 55 -19c14 -14 19 -34 19 -54c0 -22 -6 -43 -21 -58s-35 -20 -56 -20s-42 5 -56 20c-14 14 -18 33 -18 53c0 22 5 44 20 59s36 19 57 19z" />
    <glyph glyph-name="Igrave" unicode="&#xcc;" horiz-adv-x="415" 
d="M155 0l18 900h105l-18 -900h-105zM-10 1147h150l166 -180h-111z" />
    <glyph glyph-name="P" unicode="P" horiz-adv-x="989" 
d="M136 0l18 900h410c99 0 200 -9 284 -59c58 -35 97 -97 97 -165c0 -72 -42 -136 -104 -172c-86 -50 -187 -59 -286 -59h-306l-9 -445h-104zM256 810l-5 -275h306c71 0 143 5 208 36c42 20 75 57 75 103c0 44 -31 80 -71 100c-63 31 -135 36 -206 36h-307z" />
    <glyph glyph-name="tcaron" unicode="&#x165;" horiz-adv-x="524" 
d="M31 693l2 90h192l4 167h104l-3 -167h193l-2 -90h-193l-14 -693h-104l14 693h-193zM702 950h113l-181 -292h-84z" />
    <glyph glyph-name="Scedilla" unicode="&#x15e;" horiz-adv-x="1009" 
d="M651 -190c0 54 -78 64 -129 64h-127l43 105c-93 1 -188 15 -263 69c-39 28 -67 68 -81 113l100 34c10 -33 31 -62 60 -81c57 -38 127 -45 196 -45h102c70 0 142 5 202 43c45 29 68 81 68 135c0 73 -55 134 -127 135l-366 54c-118 2 -207 103 -207 222c0 78 28 155 89 200
c75 55 169 63 261 63h92c90 0 182 -13 253 -67c34 -26 58 -61 72 -100l-100 -31c-10 26 -27 48 -50 64c-51 36 -114 44 -177 44h-92c-64 0 -129 -5 -182 -41c-42 -29 -61 -78 -61 -130c0 -69 40 -133 105 -134l367 -54c126 -2 227 -100 227 -224c0 -81 -30 -159 -95 -204
c-81 -57 -183 -65 -281 -65h-34l-14 -33h21c55 0 112 -5 158 -35c33 -22 54 -59 54 -99c0 -43 -22 -82 -58 -104c-47 -30 -104 -35 -159 -35h-50c-55 0 -112 5 -158 35c-27 17 -45 45 -51 76l82 18c8 -48 78 -57 129 -57h49c52 0 132 10 132 65z" />
    <glyph glyph-name="b" unicode="b" horiz-adv-x="999" 
d="M126 0l19 950h105l-6 -294c8 14 16 28 26 41c52 70 136 107 223 107h94c98 0 195 -32 257 -107c66 -79 86 -184 86 -288c0 -120 -22 -235 -98 -323c-65 -75 -164 -107 -262 -107h-94c-87 0 -169 37 -218 107c-9 13 -18 27 -25 41l-3 -127h-104zM585 714h-94
c-71 0 -140 -28 -184 -84c-53 -67 -67 -153 -69 -238v-17c0 -80 13 -159 60 -222c42 -56 109 -84 180 -84h94c71 0 140 28 184 84c56 71 69 161 69 255c0 80 -12 159 -59 222c-42 56 -110 84 -181 84z" />
    <glyph glyph-name="Yacute" unicode="&#xdd;" horiz-adv-x="1009" 
d="M28 900h144l344 -351l358 351h143l-451 -443l-9 -457h-105l9 457zM607 1147h150l-212 -180h-111z" />
    <glyph glyph-name="ecircumflex" unicode="&#xea;" horiz-adv-x="960" 
d="M862 157c-15 -32 -35 -63 -62 -88c-71 -68 -170 -90 -267 -90h-97c-100 0 -199 32 -263 107c-67 79 -88 184 -88 289c0 120 23 235 100 322c67 75 168 107 268 107h97c100 0 199 -32 263 -107c67 -79 87 -184 87 -289v-16l-1 -46h-709c3 -70 19 -138 61 -193
c44 -57 115 -84 187 -84h97c69 0 140 18 190 67c19 19 32 40 43 63zM795 436c-3 70 -19 139 -61 194c-44 57 -114 84 -186 84h-97c-72 0 -144 -27 -190 -84c-44 -55 -63 -124 -69 -194h603zM502 1131l-145 -117h-115l184 180h154l177 -180h-115z" />
    <glyph glyph-name="ocircumflex" unicode="&#xf4;" horiz-adv-x="970" 
d="M548 714h-97c-72 0 -144 -27 -190 -84c-57 -70 -71 -160 -71 -254c0 -80 13 -160 61 -223c44 -57 115 -84 187 -84h97c72 0 144 27 190 84c57 70 71 160 71 254c0 80 -14 160 -62 223c-44 57 -114 84 -186 84zM550 804c100 0 199 -32 263 -107c67 -79 87 -184 87 -289
c0 -120 -22 -235 -99 -322c-67 -75 -168 -107 -268 -107h-97c-100 0 -199 32 -263 107c-67 79 -88 184 -88 289c0 120 23 235 100 322c67 75 168 107 268 107h97zM502 1131l-145 -117h-115l184 180h154l177 -180h-115z" />
    <glyph glyph-name="eogonek" unicode="&#x119;" horiz-adv-x="960" 
d="M638 -276c-42 -40 -115 -51 -179 -51h-50c-55 0 -112 5 -158 35c-33 22 -54 59 -54 99c0 97 127 102 197 157l20 16c-92 4 -182 36 -241 106c-67 79 -88 184 -88 289c0 120 23 235 100 322c67 75 168 107 268 107h97c100 0 199 -32 263 -107c67 -79 87 -184 87 -289v-16
l-1 -46h-709c3 -70 19 -138 61 -193c44 -57 115 -84 187 -84h88l4 3v-3h5c69 0 140 18 190 67c19 19 32 40 43 63l94 -42c-15 -32 -35 -63 -62 -88c-71 -68 -170 -90 -267 -90h-34l-109 -87c-38 -30 -109 -30 -109 -83c0 -54 78 -64 129 -64h50c45 0 99 7 122 37zM795 436
c-3 70 -19 139 -61 194c-44 57 -114 84 -186 84h-97c-72 0 -144 -27 -190 -84c-44 -55 -63 -124 -69 -194h603z" />
    <glyph glyph-name="ffi" unicode="&#xfb03;" horiz-adv-x="1348" 
d="M542 849c-3 28 -54 32 -83 32h-31c-30 0 -83 -3 -84 -34l-2 -64h350l1 49c1 43 28 82 67 103c57 31 122 36 186 36h55c64 0 130 -5 185 -36c29 -16 51 -43 59 -74l-101 -29c0 19 -18 30 -37 36c-34 12 -72 13 -108 13h-55c-36 0 -73 -1 -108 -13c-19 -6 -39 -17 -39 -36
l-1 -49h452l-16 -783h-104l13 693h-346l-14 -693h-105l14 693h-349l-14 -693h-105l14 693h-166l1 90h167l1 64c1 37 20 72 51 92c41 27 90 32 139 32h32c49 0 98 -5 138 -32c19 -13 34 -32 41 -54z" />
    <glyph glyph-name="plus" unicode="+" horiz-adv-x="951" 
d="M439 783h104l-7 -347h346l-2 -90h-346l-6 -346h-105l7 346h-345l1 90h346z" />
    <glyph glyph-name="Eogonek" unicode="&#x118;" horiz-adv-x="902" 
d="M943 -276c-42 -40 -116 -51 -180 -51h-49c-55 0 -112 5 -158 35c-33 22 -54 59 -54 99c0 97 127 102 197 157l45 36h-608l18 900h698l-2 -90h-594l-3 -171h542l-2 -90h-542l-9 -459h594l-2 -90h-4l-136 -108c-38 -30 -109 -30 -109 -83c0 -54 79 -64 130 -64h50
c45 0 99 7 122 37z" />
    <glyph glyph-name="R" unicode="R" horiz-adv-x="980" 
d="M136 0l18 900h410c98 0 198 -7 284 -53c56 -30 97 -85 97 -149c0 -67 -44 -124 -103 -155c-80 -42 -170 -52 -259 -53l387 -490h-139l-368 490h-213l-10 -490h-104zM256 810l-4 -230h306c71 0 142 3 208 30c39 16 75 45 75 86c0 40 -33 68 -71 84c-65 27 -136 30 -207 30
h-307z" />
    <glyph glyph-name="ecaron" unicode="&#x11b;" horiz-adv-x="960" 
d="M862 157c-15 -32 -35 -63 -62 -88c-71 -68 -170 -90 -267 -90h-97c-100 0 -199 32 -263 107c-67 79 -88 184 -88 289c0 120 23 235 100 322c67 75 168 107 268 107h97c100 0 199 -32 263 -107c67 -79 87 -184 87 -289v-16l-1 -46h-709c3 -70 19 -138 61 -193
c44 -57 115 -84 187 -84h97c69 0 140 18 190 67c19 19 32 40 43 63zM646 1194h114l-183 -180h-155l-176 180h114l141 -117zM795 436c-3 70 -19 139 -61 194c-44 57 -114 84 -186 84h-97c-72 0 -144 -27 -190 -84c-44 -55 -63 -124 -69 -194h603z" />
    <glyph glyph-name="V" unicode="V" horiz-adv-x="1020" 
d="M34 900h115l367 -774l398 774h109l-463 -900h-100z" />
    <glyph glyph-name="AE" unicode="&#xc6;" horiz-adv-x="1562" 
d="M19 0l729 900h764l-2 -90h-607l-4 -171h550l-2 -90h-550l-9 -459h608l-2 -90h-712l8 401h-330l-325 -401h-116zM532 491h260l6 328z" />
    <glyph glyph-name="bracketright" unicode="]" horiz-adv-x="543" 
d="M77 945h311l-25 -1245h-311l2 90h206l21 1065h-206z" />
    <glyph glyph-name="H" unicode="H" horiz-adv-x="1164" 
d="M136 0l18 900h104l-5 -261h684l5 261h104l-18 -900h-104l11 549h-684l-11 -549h-104z" />
    <glyph glyph-name="exclam" unicode="!" horiz-adv-x="531" 
d="M219 281l12 619h105l-13 -619h-104zM269 146c20 0 39 -5 53 -19c13 -13 18 -32 18 -51c0 -21 -5 -42 -20 -57c-14 -14 -34 -19 -54 -19s-40 5 -54 19c-13 13 -18 33 -18 52c0 21 5 41 20 56c14 14 35 19 55 19z" />
    <glyph glyph-name="Aogonek" unicode="&#x104;" horiz-adv-x="1077" 
d="M1160 -276c-42 -40 -115 -51 -179 -51h-50c-55 0 -112 5 -158 35c-33 22 -54 59 -54 99c0 97 127 102 197 157l45 36h-20l-172 343h-459l-186 -343h-105l487 900h100l424 -845l22 17l-4 -54l9 -18h-10l-135 -108c-38 -30 -109 -30 -109 -83c0 -54 78 -64 129 -64h50
c45 0 99 7 122 37zM724 433l-176 350l-190 -350h366z" />
    <glyph glyph-name="L" unicode="L" horiz-adv-x="892" 
d="M136 0l18 900h104l-16 -810h594l-2 -90h-698z" />
    <glyph glyph-name="comma" unicode="," horiz-adv-x="456" 
d="M210 157h122l-230 -392h-90z" />
    <glyph glyph-name="ydieresis" unicode="&#xff;" horiz-adv-x="815" 
d="M25 783h114l275 -639l301 639h106l-510 -1083h-106l150 318zM250 1149c21 0 42 -5 56 -20c14 -14 18 -33 18 -53c0 -22 -6 -44 -21 -59s-35 -19 -56 -19s-42 4 -56 19c-14 14 -18 34 -18 54c0 22 5 43 20 58s36 20 57 20zM599 1149c21 0 42 -5 56 -20
c14 -14 18 -33 18 -53c0 -22 -5 -44 -20 -59s-36 -19 -57 -19s-42 4 -56 19c-14 14 -18 34 -18 54c0 22 6 43 21 58s35 20 56 20z" />
    <glyph glyph-name="O" unicode="O" horiz-adv-x="1358" 
d="M774 831h-156c-110 0 -223 -24 -305 -99c-80 -74 -112 -181 -112 -293c0 -101 27 -202 100 -271c79 -75 191 -99 301 -99h156c110 0 223 24 305 99c80 74 112 181 112 293c0 101 -27 202 -100 271c-79 75 -191 99 -301 99zM775 921c138 0 278 -29 378 -122
c91 -85 127 -210 127 -336c0 -139 -41 -272 -141 -362c-103 -93 -244 -122 -382 -122h-156c-138 0 -278 29 -378 122c-91 85 -127 210 -127 336c0 139 41 272 141 362c103 93 244 122 382 122h156z" />
    <glyph glyph-name="bar" unicode="|" horiz-adv-x="388" 
d="M141 -45l20 990h104l-20 -990h-104z" />
    <glyph glyph-name="underscore" unicode="_" horiz-adv-x="912" 
d="M55 -165l2 90h795l-2 -90h-795z" />
    <glyph glyph-name="circumflex" unicode="&#x2c6;" horiz-adv-x="407" 
d="M220 837l-145 -117h-114l183 180h155l176 -180h-114z" />
    <glyph glyph-name="Ecircumflex" unicode="&#xca;" horiz-adv-x="902" 
d="M136 0l18 900h698l-2 -90h-594l-3 -171h542l-2 -90h-542l-9 -459h594l-2 -90h-698zM502 1084l-145 -117h-115l184 180h154l177 -180h-115z" />
    <glyph glyph-name="asterisk" unicode="*" horiz-adv-x="902" 
d="M417 900h104l-3 -177l225 65l-2 -111l-181 -52l176 -175h-137l-136 135l-142 -135h-137l183 175l-179 52l2 111l223 -65z" />
    <glyph glyph-name="dcaron" unicode="&#x10f;" horiz-adv-x="999" 
d="M873 0h-104l2 127c-8 -14 -16 -28 -26 -41c-52 -70 -136 -107 -223 -107h-94c-98 0 -195 32 -257 107c-66 79 -86 184 -86 288c0 120 22 235 98 323c65 75 163 107 261 107h94c87 0 170 -37 219 -107c9 -13 18 -27 25 -41l6 294h104zM1119 950h114l-182 -292h-84z
M537 714h-94c-71 0 -140 -28 -184 -84c-56 -71 -69 -160 -69 -254c0 -80 12 -160 59 -223c42 -56 110 -84 181 -84h94c71 0 140 28 184 84c56 71 69 161 69 255c0 80 -13 159 -60 222c-42 56 -109 84 -180 84z" />
    <glyph glyph-name="Ecaron" unicode="&#x11a;" horiz-adv-x="902" 
d="M136 0l18 900h698l-2 -90h-594l-3 -171h542l-2 -90h-542l-9 -459h594l-2 -90h-698zM646 1147h114l-183 -180h-155l-176 180h114l141 -116z" />
    <glyph glyph-name="Udieresis" unicode="&#xdc;" horiz-adv-x="1152" 
d="M1040 900l-12 -607c-2 -89 -36 -176 -106 -232c-82 -65 -189 -82 -292 -82h-109c-103 0 -209 17 -288 82c-66 54 -97 138 -97 225v7l12 607h104l-12 -607v-5c0 -62 24 -123 72 -161c59 -47 135 -58 211 -58h109c76 0 154 11 214 58c51 39 77 102 78 166l12 607h104z
M419 1102c21 0 41 -4 55 -19c14 -14 19 -34 19 -54c0 -22 -6 -43 -21 -58s-35 -20 -56 -20s-42 5 -56 20c-14 14 -19 33 -19 53c0 22 6 44 21 59s36 19 57 19zM768 1102c21 0 42 -4 56 -19c14 -14 18 -34 18 -54c0 -22 -6 -43 -21 -58s-35 -20 -56 -20s-42 5 -56 20
c-14 14 -18 33 -18 53c0 22 5 44 20 59s36 19 57 19z" />
    <glyph glyph-name="Zcaron" unicode="&#x17d;" horiz-adv-x="989" 
d="M65 810l1 90h893l-2 -100l-776 -710h762l-2 -90h-893l2 100l777 710h-762zM655 1147h115l-184 -180h-154l-177 180h115l140 -116z" />
    <glyph glyph-name="acute" unicode="&#xb4;" horiz-adv-x="388" 
d="M229 900h150l-212 -180h-111z" />
    <glyph glyph-name="uni1E9E" unicode="&#x1e9e;" horiz-adv-x="1882" 
d="M94 161l100 33c10 -32 29 -61 57 -80c54 -38 122 -45 189 -45h98c68 0 138 5 195 43c44 29 66 81 66 135c0 72 -52 132 -122 135l-353 54c-116 5 -202 105 -202 222c0 77 26 154 86 200c72 55 166 63 255 63h87c88 0 178 -13 247 -67c33 -26 57 -61 70 -100l-99 -36
c-9 27 -26 52 -50 69c-48 35 -109 44 -169 44h-88c-61 0 -125 -5 -175 -41c-41 -29 -59 -80 -59 -131c0 -68 39 -130 102 -133l354 -54c123 -5 220 -102 220 -224c0 -80 -28 -158 -92 -204c-79 -57 -178 -65 -274 -65h-98c-94 0 -191 13 -266 69c-38 29 -65 68 -79 113z
M990 161l100 33c10 -32 29 -61 57 -80c54 -38 122 -45 189 -45h98c68 0 138 5 195 43c44 29 66 81 66 135c0 72 -52 132 -122 135l-353 54c-116 5 -202 105 -202 222c0 77 26 154 86 200c72 55 166 63 255 63h87c88 0 178 -13 247 -67c33 -26 57 -61 70 -100l-99 -36
c-9 27 -26 52 -50 69c-48 35 -109 44 -169 44h-88c-61 0 -125 -5 -175 -41c-41 -29 -59 -80 -59 -131c0 -68 39 -130 102 -133l354 -54c123 -5 220 -102 220 -224c0 -80 -28 -158 -92 -204c-79 -57 -178 -65 -274 -65h-98c-94 0 -191 13 -266 69c-38 29 -65 68 -79 113z" />
    <glyph glyph-name="Uhungarumlaut" unicode="&#x170;" horiz-adv-x="1152" 
d="M1040 900l-12 -607c-2 -89 -36 -176 -106 -232c-82 -65 -189 -82 -292 -82h-109c-103 0 -209 17 -288 82c-66 54 -97 138 -97 225v7l12 607h104l-12 -607v-5c0 -62 24 -123 72 -161c59 -47 135 -58 211 -58h109c76 0 154 11 214 58c51 39 77 102 78 166l12 607h104z
M363 967l159 180h144l-197 -180h-106zM813 1147h144l-197 -180h-106z" />
    <glyph glyph-name="Atilde" unicode="&#xc3;" horiz-adv-x="1077" 
d="M19 0l487 900h100l451 -900h-116l-172 343h-459l-186 -343h-105zM466 1018c-38 0 -101 -6 -102 -46h-83c1 37 19 72 50 93c40 27 89 33 137 33c60 0 114 -33 174 -33c38 0 101 6 102 46h84c-1 -37 -19 -72 -50 -93c-40 -27 -90 -33 -138 -33c-60 0 -114 33 -174 33z
M724 433l-176 350l-190 -350h366z" />
    <glyph glyph-name="Dcaron" unicode="&#x10e;" horiz-adv-x="1222" 
d="M136 0l18 900h459c141 0 284 -26 390 -117c92 -79 131 -200 131 -322c0 -134 -44 -261 -144 -344c-109 -91 -254 -117 -395 -117h-459zM685 1147h114l-184 -180h-154l-176 180h114l140 -116zM242 90h354c113 0 230 21 318 94c80 67 116 168 116 275
c0 98 -33 194 -106 257c-85 73 -200 94 -313 94h-355z" />
    <glyph glyph-name="equal" unicode="=" horiz-adv-x="951" 
d="M88 503l1 90h796l-2 -90h-795zM81 190l2 90h796l-2 -90h-796z" />
    <glyph glyph-name="C" unicode="C" horiz-adv-x="1310" 
d="M1239 244c-23 -54 -56 -103 -100 -143c-103 -93 -244 -122 -382 -122h-156c-138 0 -278 29 -378 122c-91 85 -127 210 -127 336c0 139 41 272 141 362c103 93 244 122 382 122h156c138 0 278 -29 378 -122c43 -40 74 -89 94 -143l-98 -39c-16 43 -40 83 -74 115
c-79 75 -191 99 -301 99h-156c-110 0 -223 -24 -305 -99c-80 -74 -112 -181 -112 -293c0 -101 27 -202 100 -271c79 -75 191 -99 301 -99h156c110 0 223 24 305 99c35 32 62 72 80 115z" />
    <glyph glyph-name="Eth" unicode="&#xd0;" horiz-adv-x="1300" 
d="M690 900c141 0 285 -26 391 -117c92 -79 131 -200 131 -322c0 -134 -45 -261 -145 -344c-109 -91 -254 -117 -395 -117h-459l9 405h-146l2 90h145l8 405h459zM320 90h354c113 0 229 21 317 94c80 67 116 168 116 275c0 98 -32 194 -105 257c-85 73 -201 94 -314 94h-354
l-6 -315h390l-2 -90h-390z" />
    <glyph glyph-name="edieresis" unicode="&#xeb;" horiz-adv-x="960" 
d="M862 157c-15 -32 -35 -63 -62 -88c-71 -68 -170 -90 -267 -90h-97c-100 0 -199 32 -263 107c-67 79 -88 184 -88 289c0 120 23 235 100 322c67 75 168 107 268 107h97c100 0 199 -32 263 -107c67 -79 87 -184 87 -289v-16l-1 -46h-709c3 -70 19 -138 61 -193
c44 -57 115 -84 187 -84h97c69 0 140 18 190 67c19 19 32 40 43 63zM328 1149c21 0 41 -5 55 -20c14 -14 19 -33 19 -53c0 -22 -6 -44 -21 -59s-36 -19 -57 -19s-41 4 -55 19c-14 14 -19 34 -19 54c0 22 6 43 21 58s36 20 57 20zM677 1149c21 0 41 -5 55 -20
c14 -14 19 -33 19 -53c0 -22 -6 -44 -21 -59s-35 -19 -56 -19s-42 4 -56 19c-14 14 -19 34 -19 54c0 22 6 43 21 58s36 20 57 20zM795 436c-3 70 -19 139 -61 194c-44 57 -114 84 -186 84h-97c-72 0 -144 -27 -190 -84c-44 -55 -63 -124 -69 -194h603z" />
    <glyph glyph-name="ccaron" unicode="&#x10d;" horiz-adv-x="927" 
d="M874 217c-15 -48 -39 -93 -73 -131c-67 -75 -168 -107 -268 -107h-97c-100 0 -199 32 -263 107c-67 79 -88 184 -88 289c0 120 23 235 100 322c67 75 168 107 268 107h97c100 0 199 -32 263 -107c33 -38 54 -83 68 -131l-100 -31c-10 34 -25 67 -47 95
c-44 57 -114 84 -186 84h-97c-72 0 -144 -27 -190 -84c-57 -70 -71 -160 -71 -254c0 -80 13 -160 61 -223c44 -57 115 -84 187 -84h97c72 0 144 27 190 84c23 28 39 61 50 95zM646 1194h114l-183 -180h-155l-176 180h114l141 -117z" />
    <glyph glyph-name="cacute" unicode="&#x107;" horiz-adv-x="927" 
d="M874 217c-15 -48 -39 -93 -73 -131c-67 -75 -168 -107 -268 -107h-97c-100 0 -199 32 -263 107c-67 79 -88 184 -88 289c0 120 23 235 100 322c67 75 168 107 268 107h97c100 0 199 -32 263 -107c33 -38 54 -83 68 -131l-100 -31c-10 34 -25 67 -47 95
c-44 57 -114 84 -186 84h-97c-72 0 -144 -27 -190 -84c-57 -70 -71 -160 -71 -254c0 -80 13 -160 61 -223c44 -57 115 -84 187 -84h97c72 0 144 27 190 84c23 28 39 61 50 95zM588 1194h150l-212 -180h-111z" />
    <glyph glyph-name="odieresis" unicode="&#xf6;" horiz-adv-x="970" 
d="M328 1149c21 0 41 -5 55 -20c14 -14 19 -33 19 -53c0 -22 -6 -44 -21 -59s-36 -19 -57 -19s-41 4 -55 19c-14 14 -19 34 -19 54c0 22 6 43 21 58s36 20 57 20zM677 1149c21 0 41 -5 55 -20c14 -14 19 -33 19 -53c0 -22 -6 -44 -21 -59s-35 -19 -56 -19s-42 4 -56 19
c-14 14 -19 34 -19 54c0 22 6 43 21 58s36 20 57 20zM548 714h-97c-72 0 -144 -27 -190 -84c-57 -70 -71 -160 -71 -254c0 -80 13 -160 61 -223c44 -57 115 -84 187 -84h97c72 0 144 27 190 84c57 70 71 160 71 254c0 80 -14 160 -62 223c-44 57 -114 84 -186 84zM550 804
c100 0 199 -32 263 -107c67 -79 87 -184 87 -289c0 -120 -22 -235 -99 -322c-67 -75 -168 -107 -268 -107h-97c-100 0 -199 32 -263 107c-67 79 -88 184 -88 289c0 120 23 235 100 322c67 75 168 107 268 107h97z" />
    <glyph glyph-name="four" unicode="4" horiz-adv-x="960" 
d="M721 225l-4 -225h-105l5 225h-547l2 100l563 575h100l-12 -585h178l-2 -90h-178zM619 315l9 450l-441 -450h432z" />
    <glyph glyph-name="adieresis" unicode="&#xe4;" horiz-adv-x="912" 
d="M487 483c82 0 165 -24 212 -84l2 84v9c0 59 -14 119 -53 162s-97 60 -156 60h-82c-59 0 -118 -17 -159 -60c-14 -15 -25 -31 -34 -49l-93 44c13 26 30 51 51 72c62 61 150 83 237 83h81c87 0 174 -22 234 -83c58 -59 78 -143 78 -227v-11l-10 -483h-104l1 63
c-49 -59 -133 -84 -215 -84h-82c-84 0 -169 14 -234 66c-54 43 -79 110 -79 180c0 76 29 148 87 193c67 52 152 65 236 65h82zM279 1149c21 0 42 -5 56 -20c14 -14 18 -33 18 -53c0 -22 -6 -44 -21 -59s-35 -19 -56 -19s-42 4 -56 19c-14 14 -18 34 -18 54c0 22 6 43 21 58
s35 20 56 20zM628 1149c21 0 42 -5 56 -20c14 -14 18 -33 18 -53c0 -22 -5 -44 -20 -59s-36 -19 -57 -19s-41 4 -55 19c-14 14 -19 34 -19 54c0 22 6 43 21 58s35 20 56 20zM485 393h-81c-56 0 -114 -8 -159 -42c-38 -29 -58 -74 -58 -123c0 -45 17 -90 53 -117
c44 -34 101 -42 157 -42h82c56 0 114 8 159 42c38 28 58 75 58 122c0 45 -18 90 -54 118c-44 34 -101 42 -157 42z" />
    <glyph glyph-name="Ydieresis" unicode="&#x178;" horiz-adv-x="1009" 
d="M28 900h144l344 -351l358 351h143l-451 -443l-9 -457h-105l9 457zM347 1102c21 0 42 -4 56 -19c14 -14 18 -34 18 -54c0 -22 -6 -43 -21 -58s-35 -20 -56 -20s-42 5 -56 20c-14 14 -18 33 -18 53c0 22 5 44 20 59s36 19 57 19zM696 1102c21 0 42 -4 56 -19
c14 -14 18 -34 18 -54c0 -22 -5 -43 -20 -58s-36 -20 -57 -20s-42 5 -56 20c-14 14 -18 33 -18 53c0 22 6 44 21 59s35 19 56 19z" />
    <glyph glyph-name="Thorn" unicode="&#xde;" horiz-adv-x="1009" 
d="M136 0l18 900h104l-2 -135h306c99 0 199 -9 283 -59c58 -35 97 -96 97 -164c0 -72 -41 -136 -103 -172c-86 -50 -187 -59 -286 -59h-307l-6 -311h-104zM254 675l-6 -274h306c71 0 144 5 209 36c42 20 75 57 75 103c0 44 -31 79 -71 99c-63 31 -136 36 -207 36h-306z" />
    <glyph glyph-name="cedilla" unicode="&#xb8;" horiz-adv-x="388" 
d="M346 -190c0 54 -79 64 -130 64h-127l67 162h78l-38 -90h22c55 0 112 -5 158 -35c33 -22 53 -59 53 -99c0 -43 -21 -82 -57 -104c-47 -30 -105 -35 -160 -35h-49c-55 0 -112 5 -158 35c-27 17 -46 45 -52 76l82 18c8 -48 78 -57 129 -57h50c52 0 132 10 132 65z" />
    <glyph glyph-name="p" unicode="p" horiz-adv-x="989" 
d="M110 -300l22 1083h104l-2 -127c8 14 16 28 26 41c52 70 136 107 223 107h94c98 0 196 -32 258 -107c66 -79 85 -184 85 -288c0 -120 -22 -235 -98 -323c-65 -75 -163 -107 -261 -107h-94c-87 0 -170 37 -219 107c-9 13 -18 27 -25 41l-8 -427h-105zM575 714h-94
c-71 0 -140 -28 -184 -84c-53 -67 -66 -153 -68 -238v-1c0 -5 -1 -11 -1 -16c0 -79 13 -159 60 -222c42 -56 110 -84 181 -84h93c71 0 140 28 184 84c56 71 69 161 69 255c0 80 -12 159 -59 222c-42 56 -110 84 -181 84z" />
    <glyph glyph-name="semicolon" unicode=";" horiz-adv-x="466" 
d="M200 157h122l-229 -392h-91zM274 783c20 0 40 -5 54 -19c13 -13 18 -33 18 -52c0 -21 -6 -41 -21 -56c-14 -14 -34 -19 -54 -19s-40 5 -54 19c-13 13 -18 32 -18 51c0 21 5 42 20 57c14 14 35 19 55 19z" />
    <glyph glyph-name="Idieresis" unicode="&#xcf;" horiz-adv-x="415" 
d="M155 0l18 900h105l-18 -900h-105zM50 1102c21 0 42 -4 56 -19c14 -14 18 -34 18 -54c0 -22 -6 -43 -21 -58s-35 -20 -56 -20s-42 5 -56 20c-14 14 -18 33 -18 53c0 22 5 44 20 59s36 19 57 19zM399 1102c21 0 42 -4 56 -19c14 -14 18 -34 18 -54c0 -22 -5 -43 -20 -58
s-36 -20 -57 -20s-42 5 -56 20c-14 14 -18 33 -18 53c0 22 6 44 21 59s35 19 56 19z" />
    <glyph glyph-name="U" unicode="U" horiz-adv-x="1152" 
d="M1040 900l-12 -607c-2 -89 -36 -176 -106 -232c-82 -65 -189 -82 -292 -82h-109c-103 0 -209 17 -288 82c-66 54 -97 138 -97 225v7l12 607h104l-12 -607v-5c0 -62 24 -123 72 -161c59 -47 135 -58 211 -58h109c76 0 154 11 214 58c51 39 77 102 78 166l12 607h104z" />
    <glyph glyph-name="Agrave" unicode="&#xc0;" horiz-adv-x="1077" 
d="M19 0l487 900h100l451 -900h-116l-172 343h-459l-186 -343h-105zM321 1147h150l166 -180h-111zM724 433l-176 350l-190 -350h366z" />
    <glyph glyph-name="dollar" unicode="$" horiz-adv-x="1009" 
d="M94 161l100 34c10 -33 31 -62 60 -81c57 -38 127 -45 196 -45h102c70 0 142 5 202 43c45 29 68 81 68 135c0 73 -55 134 -127 135l-366 54c-118 2 -207 103 -207 222c0 78 28 155 89 200c73 54 165 63 255 63l3 159h104l-3 -159c88 -1 177 -14 247 -67
c34 -26 58 -61 72 -100l-99 -37c-10 28 -26 53 -51 70c-51 36 -114 44 -177 44h-92c-64 0 -129 -5 -182 -41c-42 -29 -61 -78 -61 -130c0 -69 40 -133 105 -134l367 -54c126 -2 227 -100 227 -224c0 -81 -30 -159 -95 -204c-81 -57 -182 -65 -280 -65l-3 -159h-104l3 159
c-96 0 -195 13 -272 69c-39 28 -67 68 -81 113z" />
    <glyph glyph-name="ncaron" unicode="&#x148;" 
d="M116 0l16 783h104l-1 -91c8 12 17 23 28 33c60 59 145 79 228 79h79c73 0 145 -24 191 -79c49 -58 64 -136 64 -213v-12l-10 -500h-105l10 500c0 4 1 7 1 11c0 52 -8 105 -38 147c-26 37 -70 56 -115 56h-78c-68 0 -137 -12 -190 -56c-47 -39 -68 -98 -69 -158l-10 -500
h-105zM626 1194h115l-184 -180h-154l-177 180h115l140 -117z" />
    <glyph glyph-name="Ograve" unicode="&#xd2;" horiz-adv-x="1358" 
d="M462 1147h150l166 -180h-111zM774 831h-156c-110 0 -223 -24 -305 -99c-80 -74 -112 -181 -112 -293c0 -101 27 -202 100 -271c79 -75 191 -99 301 -99h156c110 0 223 24 305 99c80 74 112 181 112 293c0 101 -27 202 -100 271c-79 75 -191 99 -301 99zM775 921
c138 0 278 -29 378 -122c91 -85 127 -210 127 -336c0 -139 -41 -272 -141 -362c-103 -93 -244 -122 -382 -122h-156c-138 0 -278 29 -378 122c-91 85 -127 210 -127 336c0 139 41 272 141 362c103 93 244 122 382 122h156z" />
    <glyph glyph-name="Icircumflex" unicode="&#xce;" horiz-adv-x="415" 
d="M155 0l18 900h105l-18 -900h-105zM224 1084l-145 -117h-114l183 180h155l176 -180h-114z" />
    <glyph glyph-name="e" unicode="e" horiz-adv-x="960" 
d="M862 157c-15 -32 -35 -63 -62 -88c-71 -68 -170 -90 -267 -90h-97c-100 0 -199 32 -263 107c-67 79 -88 184 -88 289c0 120 23 235 100 322c67 75 168 107 268 107h97c100 0 199 -32 263 -107c67 -79 87 -184 87 -289v-16l-1 -46h-709c3 -70 19 -138 61 -193
c44 -57 115 -84 187 -84h97c69 0 140 18 190 67c19 19 32 40 43 63zM795 436c-3 70 -19 139 -61 194c-44 57 -114 84 -186 84h-97c-72 0 -144 -27 -190 -84c-44 -55 -63 -124 -69 -194h603z" />
    <glyph glyph-name="breve" unicode="&#x2d8;" horiz-adv-x="407" 
d="M250 805c64 0 157 11 160 77h83c-1 -47 -25 -90 -65 -116c-53 -34 -117 -41 -180 -41h-60c-63 0 -126 7 -178 41c-39 26 -62 69 -61 116h84c-1 -25 17 -46 40 -57c36 -18 77 -20 117 -20h60z" />
    <glyph glyph-name="ampersand" unicode="&#x26;" horiz-adv-x="1203" 
d="M957 764l-96 -42c-10 26 -28 49 -52 65c-53 36 -121 44 -186 44h-95c-65 0 -132 -8 -187 -44c-42 -28 -68 -75 -68 -126c0 -54 39 -98 88 -122c79 -38 168 -44 256 -44h531l-2 -90h-175l-8 -405h-452c-93 0 -187 11 -262 64c-57 40 -89 108 -89 179c0 76 35 146 96 188
c29 20 60 33 92 43c-22 7 -44 16 -65 26c-64 32 -115 89 -115 160c0 77 35 150 97 194c76 55 171 67 264 67h96c93 0 188 -12 262 -67c32 -23 55 -55 70 -90zM866 405h-347c-65 0 -131 -7 -187 -41c-41 -26 -67 -70 -67 -119c0 -46 24 -89 63 -114c54 -34 120 -41 185 -41
h347z" />
    <glyph glyph-name="d" unicode="d" horiz-adv-x="999" 
d="M873 0h-104l2 127c-8 -14 -16 -28 -26 -41c-52 -70 -136 -107 -223 -107h-94c-98 0 -195 32 -257 107c-66 79 -86 184 -86 288c0 120 22 235 98 323c65 75 163 107 261 107h94c87 0 170 -37 219 -107c9 -13 18 -27 25 -41l6 294h104zM537 714h-94
c-71 0 -140 -28 -184 -84c-56 -71 -69 -160 -69 -254c0 -80 12 -160 59 -223c42 -56 110 -84 181 -84h94c71 0 140 28 184 84c56 71 69 161 69 255c0 80 -13 159 -60 222c-42 56 -109 84 -180 84z" />
    <glyph glyph-name="dotlessi" unicode="&#x131;" horiz-adv-x="369" 
d="M132 0l16 783h104l-16 -783h-104z" />
    <glyph glyph-name="Oslash" unicode="&#xd8;" horiz-adv-x="1358" 
d="M774 831h-156c-110 0 -223 -24 -305 -99c-80 -74 -112 -181 -112 -293c0 -93 23 -185 83 -253l740 585c-73 45 -162 60 -250 60zM775 921c118 0 238 -21 332 -85l81 64h140l-155 -122c76 -84 107 -199 107 -315c0 -139 -41 -272 -141 -362c-103 -93 -244 -122 -382 -122
h-156c-118 0 -237 21 -331 85l-82 -64h-140l155 122c-76 84 -107 199 -107 315c0 139 41 272 141 362c103 93 244 122 382 122h156zM352 129c73 -45 162 -60 250 -60h156c110 0 223 24 305 99c80 74 112 181 112 293c0 93 -23 185 -83 253z" />
    <glyph glyph-name="Acircumflex" unicode="&#xc2;" horiz-adv-x="1077" 
d="M19 0l487 900h100l451 -900h-116l-172 343h-459l-186 -343h-105zM724 433l-176 350l-190 -350h366zM555 1084l-145 -117h-114l183 180h155l176 -180h-114z" />
    <glyph glyph-name="w" unicode="w" horiz-adv-x="1251" 
d="M25 783h115l298 -659l145 294l-165 365h114l110 -244l120 244h103l-173 -352l138 -307l325 659h102l-385 -783h-100l-140 309l-152 -309h-100z" />
    <glyph glyph-name="braceright" unicode="}" horiz-adv-x="592" 
d="M330 330c-49 40 -71 105 -71 171v6l3 178c2 92 -78 162 -155 197l38 85c109 -47 222 -147 222 -277v-5l-4 -178c-1 -35 11 -70 38 -92c30 -26 71 -33 111 -33l-2 -104c-40 0 -82 -7 -113 -33c-28 -22 -40 -57 -41 -92l-4 -178c-3 -133 -120 -234 -232 -282l-35 85
c78 35 161 105 163 197l4 178c1 68 25 136 78 177z" />
    <glyph glyph-name="nacute" unicode="&#x144;" 
d="M116 0l16 783h104l-1 -91c8 12 17 23 28 33c60 59 145 79 228 79h79c73 0 145 -24 191 -79c49 -58 64 -136 64 -213v-12l-10 -500h-105l10 500c0 4 1 7 1 11c0 52 -8 105 -38 147c-26 37 -70 56 -115 56h-78c-68 0 -137 -12 -190 -56c-47 -39 -68 -98 -69 -158l-10 -500
h-105zM569 1194h150l-213 -180h-111z" />
    <glyph glyph-name="lslash" unicode="&#x142;" horiz-adv-x="446" 
d="M182 552l8 398h104l-7 -348l150 70l-3 -109l-149 -70l-10 -493h-104l9 443l-149 -70l2 109z" />
    <glyph glyph-name="Ccaron" unicode="&#x10c;" horiz-adv-x="1310" 
d="M1239 244c-23 -54 -56 -103 -100 -143c-103 -93 -244 -122 -382 -122h-156c-138 0 -278 29 -378 122c-91 85 -127 210 -127 336c0 139 41 272 141 362c103 93 244 122 382 122h156c138 0 278 -29 378 -122c43 -40 74 -89 94 -143l-98 -39c-16 43 -40 83 -74 115
c-79 75 -191 99 -301 99h-156c-110 0 -223 -24 -305 -99c-80 -74 -112 -181 -112 -293c0 -101 27 -202 100 -271c79 -75 191 -99 301 -99h156c110 0 223 24 305 99c35 32 62 72 80 115zM840 1147h114l-183 -180h-155l-176 180h114l141 -116z" />
    <glyph glyph-name="Uacute" unicode="&#xda;" horiz-adv-x="1152" 
d="M1040 900l-12 -607c-2 -89 -36 -176 -106 -232c-82 -65 -189 -82 -292 -82h-109c-103 0 -209 17 -288 82c-66 54 -97 138 -97 225v7l12 607h104l-12 -607v-5c0 -62 24 -123 72 -161c59 -47 135 -58 211 -58h109c76 0 154 11 214 58c51 39 77 102 78 166l12 607h104z
M679 1147h150l-212 -180h-111z" />
    <glyph glyph-name="v" unicode="v" horiz-adv-x="815" 
d="M25 783h114l275 -649l301 649h106l-364 -783h-100z" />
    <glyph glyph-name="E" unicode="E" horiz-adv-x="902" 
d="M136 0l18 900h698l-2 -90h-594l-3 -171h542l-2 -90h-542l-9 -459h594l-2 -90h-698z" />
    <glyph glyph-name="B" unicode="B" horiz-adv-x="1019" 
d="M901 742c0 -62 -69 -93 -126 -108c28 -13 54 -30 77 -52c63 -61 86 -150 86 -238c0 -98 -26 -192 -96 -257s-167 -87 -262 -87h-444l18 900h444c78 0 158 -6 226 -42c45 -24 77 -66 77 -116zM256 810l-2 -141h340c50 0 101 1 149 18c27 9 54 26 54 53c0 26 -26 43 -52 52
c-47 17 -98 18 -148 18h-341zM252 579l-10 -489h340c67 0 136 17 184 64c50 48 68 117 68 188c0 64 -17 128 -61 173c-47 47 -114 64 -181 64h-340z" />
    <glyph glyph-name="s" unicode="s" horiz-adv-x="776" 
d="M70 145l101 28c7 -26 21 -49 43 -66c39 -30 89 -38 139 -38h72c50 0 103 4 144 35c34 26 49 68 49 112c0 57 -32 110 -86 117l-263 31c-100 12 -168 104 -168 207c0 67 18 134 69 177c56 47 131 56 203 56h62c71 0 144 -13 197 -59c29 -25 47 -59 57 -95l-101 -29
c-6 22 -18 42 -35 57c-32 28 -77 36 -120 36h-62c-44 0 -89 -6 -123 -34c-31 -26 -42 -67 -42 -109c0 -56 25 -111 76 -117l263 -31c103 -13 177 -101 177 -205c0 -70 -21 -140 -75 -182c-62 -49 -144 -57 -223 -57h-72c-78 0 -157 13 -217 61c-33 27 -54 64 -65 105z" />
    <glyph glyph-name="OE" unicode="&#x152;" horiz-adv-x="1630" 
d="M680 831h-130c-95 0 -190 -29 -255 -99c-73 -79 -94 -186 -94 -297c0 -97 20 -195 83 -267c62 -70 156 -99 251 -99h130c95 0 190 29 255 99c70 76 92 180 94 282v15c0 97 -20 195 -83 267c-62 70 -156 99 -251 99zM1007 114c-84 -95 -215 -135 -344 -135h-130
c-123 0 -246 33 -328 122c-82 88 -109 210 -109 332c0 137 30 270 123 366c86 89 210 122 333 122h130c130 0 259 -39 339 -135l2 114h557l-2 -90h-452l-4 -171h400l-2 -90h-400l-9 -459h453l-2 -90h-557z" />
    <glyph glyph-name="caron" unicode="&#x2c7;" horiz-adv-x="407" 
d="M364 900h115l-184 -180h-154l-177 180h115l140 -117z" />
    <glyph glyph-name="eth" unicode="&#xf0;" horiz-adv-x="1019" 
d="M825 403c0 95 -20 171 -65 227c-47 58 -120 84 -195 84h-34l-202 -48v16c-24 -13 -47 -30 -65 -52c-59 -69 -74 -159 -74 -253c0 -81 14 -162 64 -224c47 -58 121 -84 196 -84h102c75 0 150 26 199 84c58 68 74 158 74 250zM790 775c88 -100 139 -231 139 -372
c0 -117 -24 -233 -102 -317c-70 -76 -174 -107 -277 -107h-102c-103 0 -205 31 -272 107c-69 78 -91 185 -91 290c0 120 24 235 103 321c70 76 174 107 277 107h56l103 25c-82 67 -183 110 -296 121h176c78 -19 148 -55 208 -101l220 52l-2 -92z" />
    <glyph glyph-name="Rcaron" unicode="&#x158;" horiz-adv-x="980" 
d="M136 0l18 900h410c98 0 198 -7 284 -53c56 -30 97 -85 97 -149c0 -67 -44 -124 -103 -155c-80 -42 -170 -52 -259 -53l387 -490h-139l-368 490h-213l-10 -490h-104zM607 1147h114l-183 -180h-155l-176 180h114l141 -116zM256 810l-4 -230h306c71 0 142 3 208 30
c39 16 75 45 75 86c0 40 -33 68 -71 84c-65 27 -136 30 -207 30h-307z" />
    <glyph glyph-name="zacute" unicode="&#x17a;" horiz-adv-x="718" 
d="M62 693l2 90h621l-2 -100l-509 -593h497l-2 -90h-621l2 100l510 593h-498zM462 1194h150l-212 -180h-111z" />
    <glyph glyph-name="uring" unicode="&#x16f;" 
d="M821 783l-16 -783h-104l1 78c-5 -7 -10 -14 -15 -20c-48 -55 -120 -79 -192 -79h-79c-84 0 -169 20 -228 79c-56 56 -76 136 -76 216v9l10 500h105l-10 -500v-7c0 -56 12 -111 50 -151c38 -41 95 -56 151 -56h78c56 0 114 15 154 56c41 42 55 100 56 158l10 500h105z
M568 1105c0 42 -39 59 -79 59h-31c-41 0 -82 -18 -82 -61c0 -17 7 -33 20 -43c17 -13 39 -16 60 -16h30c41 0 82 18 82 61zM490 1224c40 0 80 -6 111 -31c25 -21 37 -53 37 -86c0 -36 -13 -70 -41 -92c-32 -25 -72 -31 -112 -31h-31c-40 0 -79 6 -110 31
c-25 21 -38 53 -38 86c0 36 13 70 41 92c32 25 72 31 112 31h31z" />
    <glyph glyph-name="I" unicode="I" horiz-adv-x="415" 
d="M155 0l18 900h105l-18 -900h-105z" />
    <glyph glyph-name="ntilde" unicode="&#xf1;" 
d="M116 0l16 783h104l-1 -91c8 12 17 23 28 33c60 59 145 79 228 79h79c73 0 145 -24 191 -79c49 -58 64 -136 64 -213v-12l-10 -500h-105l10 500c0 4 1 7 1 11c0 52 -8 105 -38 147c-26 37 -70 56 -115 56h-78c-68 0 -137 -12 -190 -56c-47 -39 -68 -98 -69 -158l-10 -500
h-105zM394 1065c-38 0 -101 -6 -102 -46h-84c1 37 19 72 50 93c40 27 89 33 137 33c60 0 114 -33 174 -33c38 0 101 6 102 46h84c-1 -37 -19 -72 -50 -93c-40 -27 -89 -33 -137 -33c-60 0 -114 33 -174 33z" />
    <glyph glyph-name="Uring" unicode="&#x16e;" horiz-adv-x="1152" 
d="M1040 900l-12 -607c-2 -89 -36 -176 -106 -232c-82 -65 -189 -82 -292 -82h-109c-103 0 -209 17 -288 82c-66 54 -97 138 -97 225v7l12 607h104l-12 -607v-5c0 -62 24 -123 72 -161c59 -47 135 -58 211 -58h109c76 0 154 11 214 58c51 39 77 102 78 166l12 607h104z
M607 997c42 0 82 18 82 62c0 17 -8 33 -21 43c-17 13 -38 15 -59 15h-31c-21 0 -43 -2 -60 -15c-14 -10 -22 -28 -22 -46c0 -17 7 -33 20 -43c17 -13 39 -16 60 -16h31zM610 1177c40 0 80 -6 111 -31c25 -21 37 -53 37 -86c0 -36 -13 -69 -41 -91c-32 -25 -72 -32 -112 -32
h-30c-40 0 -80 7 -111 32c-25 21 -37 53 -37 86c0 36 13 69 41 91c32 25 71 31 111 31h31z" />
    <glyph glyph-name="tcedilla" unicode="&#x163;" horiz-adv-x="524" 
d="M414 -190c0 54 -79 64 -130 64h-127l53 128l14 691h-193l2 90h192l4 167h104l-3 -167h193l-2 -90h-193l-14 -693h-27l-23 -54h22c55 0 112 -5 158 -35c33 -22 53 -59 53 -99c0 -43 -21 -82 -57 -104c-47 -30 -105 -35 -160 -35h-50c-55 0 -111 5 -157 35
c-27 17 -46 45 -52 76l82 18c8 -48 78 -57 129 -57h50c52 0 132 10 132 65z" />
    <glyph glyph-name="ucircumflex" unicode="&#xfb;" 
d="M821 783l-16 -783h-104l1 78c-5 -7 -10 -14 -15 -20c-48 -55 -120 -79 -192 -79h-79c-84 0 -169 20 -228 79c-56 56 -76 136 -76 216v9l10 500h105l-10 -500v-7c0 -56 12 -111 50 -151c38 -41 95 -56 151 -56h78c56 0 114 15 154 56c41 42 55 100 56 158l10 500h105z
M473 1131l-145 -117h-115l184 180h154l177 -180h-115z" />
    <glyph glyph-name="Egrave" unicode="&#xc8;" horiz-adv-x="902" 
d="M136 0l18 900h698l-2 -90h-594l-3 -171h542l-2 -90h-542l-9 -459h594l-2 -90h-698zM268 1147h150l166 -180h-111z" />
    <glyph glyph-name="j" unicode="j" horiz-adv-x="407" 
d="M307 783l-18 -899c-1 -57 -20 -114 -63 -152c-46 -41 -109 -53 -170 -53h-47c-61 0 -123 12 -168 53c-22 21 -38 47 -47 76l100 32c5 -16 13 -30 25 -41c24 -23 59 -30 92 -30h47c33 0 67 7 92 30c24 22 33 53 34 85l18 899h105zM239 1149c21 0 42 -5 56 -20
c14 -14 18 -33 18 -53c0 -22 -5 -44 -20 -59s-36 -19 -57 -19s-41 4 -55 19c-14 14 -19 34 -19 54c0 22 6 43 21 58s35 20 56 20z" />
    <glyph glyph-name="Oacute" unicode="&#xd3;" horiz-adv-x="1358" 
d="M782 1147h150l-212 -180h-111zM774 831h-156c-110 0 -223 -24 -305 -99c-80 -74 -112 -181 -112 -293c0 -101 27 -202 100 -271c79 -75 191 -99 301 -99h156c110 0 223 24 305 99c80 74 112 181 112 293c0 101 -27 202 -100 271c-79 75 -191 99 -301 99zM775 921
c138 0 278 -29 378 -122c91 -85 127 -210 127 -336c0 -139 -41 -272 -141 -362c-103 -93 -244 -122 -382 -122h-156c-138 0 -278 29 -378 122c-91 85 -127 210 -127 336c0 139 41 272 141 362c103 93 244 122 382 122h156z" />
    <glyph glyph-name="ae" unicode="&#xe6;" horiz-adv-x="1436" 
d="M462 483c73 0 144 -23 187 -77l2 77v11c0 58 -10 115 -46 160c-33 41 -85 60 -138 60h-72c-53 0 -106 -19 -141 -60c-12 -14 -22 -29 -29 -46l-94 41c12 26 27 51 47 72c56 60 138 83 219 83h72c81 0 162 -23 215 -83c14 -16 26 -34 35 -52c6 9 13 19 20 28
c58 72 148 107 240 107h83c92 0 181 -35 236 -107c61 -80 78 -184 78 -286v-19l-1 -46h-621c2 -69 14 -136 51 -193c35 -53 96 -84 160 -84h82c61 0 123 20 163 67c16 18 27 39 36 60l96 -39c-13 -32 -33 -62 -57 -88c-61 -65 -150 -90 -239 -90h-83
c-100 0 -192 42 -246 121c-12 -21 -28 -39 -47 -55c-60 -51 -140 -66 -218 -66h-72c-78 0 -158 15 -216 66c-51 44 -72 112 -72 180c0 75 24 146 80 193c60 51 140 65 218 65h72zM460 393h-72c-50 0 -101 -9 -140 -42c-36 -30 -52 -76 -52 -124c0 -44 14 -87 47 -116
c37 -33 89 -42 139 -42h72c50 0 101 9 140 42c36 30 52 76 52 124c0 44 -14 87 -47 116c-37 33 -89 42 -139 42zM1271 436c-2 69 -15 137 -52 194c-35 53 -95 84 -159 84h-83c-64 0 -125 -31 -162 -84c-40 -57 -54 -125 -59 -194h515z" />
    <glyph glyph-name="c" unicode="c" horiz-adv-x="927" 
d="M874 217c-15 -48 -39 -93 -73 -131c-67 -75 -168 -107 -268 -107h-97c-100 0 -199 32 -263 107c-67 79 -88 184 -88 289c0 120 23 235 100 322c67 75 168 107 268 107h97c100 0 199 -32 263 -107c33 -38 54 -83 68 -131l-100 -31c-10 34 -25 67 -47 95
c-44 57 -114 84 -186 84h-97c-72 0 -144 -27 -190 -84c-57 -70 -71 -160 -71 -254c0 -80 13 -160 61 -223c44 -57 115 -84 187 -84h97c72 0 144 27 190 84c23 28 39 61 50 95z" />
    <glyph glyph-name="Lcaron" unicode="&#x13d;" horiz-adv-x="892" 
d="M136 0l18 900h104l-16 -810h594l-2 -90h-698zM615 900h113l-182 -292h-83z" />
    <glyph glyph-name="D" unicode="D" horiz-adv-x="1222" 
d="M136 0l18 900h459c141 0 284 -26 390 -117c92 -79 131 -200 131 -322c0 -134 -44 -261 -144 -344c-109 -91 -254 -117 -395 -117h-459zM242 90h354c113 0 230 21 318 94c80 67 116 168 116 275c0 98 -33 194 -106 257c-85 73 -200 94 -313 94h-355z" />
    <glyph glyph-name="icircumflex" unicode="&#xee;" horiz-adv-x="369" 
d="M132 0l16 783h104l-16 -783h-104zM201 1131l-145 -117h-115l184 180h155l176 -180h-115z" />
    <glyph glyph-name="gbreve" unicode="&#x11f;" horiz-adv-x="989" 
d="M889 783l-17 -821c-2 -80 -32 -160 -95 -210c-73 -58 -168 -73 -261 -73h-94c-93 0 -187 15 -258 73c-40 33 -66 78 -78 128l101 27c9 -35 27 -66 55 -88c50 -40 117 -50 182 -50h94c65 0 131 10 183 50c44 34 66 88 67 143l3 183c-8 -14 -16 -27 -26 -40
c-53 -69 -137 -105 -223 -105h-94c-98 0 -194 31 -257 105c-65 77 -86 179 -86 281c0 117 23 228 98 313c66 74 163 105 261 105h94c86 0 169 -36 219 -105c9 -13 18 -26 25 -40l2 124h105zM765 1177c-1 -47 -25 -91 -65 -117c-53 -34 -117 -41 -180 -41h-60
c-63 0 -127 7 -179 41c-39 26 -61 70 -60 117h83c-1 -25 17 -47 40 -58c36 -18 77 -20 117 -20h61c40 0 81 2 117 20c23 11 42 33 43 58h83zM537 714h-94c-70 0 -140 -26 -184 -81c-55 -68 -69 -155 -69 -246c0 -77 12 -155 59 -216c42 -55 111 -81 181 -81h94
c70 0 140 26 184 81c55 68 69 155 69 246c0 77 -13 155 -60 216c-42 55 -110 81 -180 81z" />
    <glyph glyph-name="ij" unicode="&#x133;" horiz-adv-x="892" 
d="M190 783h105l-16 -783h-104zM792 783l-18 -899c-1 -58 -23 -115 -68 -152c-52 -42 -121 -53 -187 -53h-56c-66 0 -134 11 -184 53c-24 20 -40 47 -50 76l99 35c6 -17 16 -32 30 -44c30 -24 68 -30 107 -30h56c39 0 78 6 109 30c26 20 38 52 39 85l18 899h105zM736 1135
c21 0 41 -4 55 -19c14 -14 19 -34 19 -54c0 -22 -6 -43 -21 -58s-35 -20 -56 -20s-42 5 -56 20c-14 14 -19 33 -19 53c0 22 6 44 21 59s36 19 57 19zM260 1135c21 0 42 -4 56 -19c14 -14 19 -34 19 -54c0 -22 -6 -43 -21 -58s-36 -20 -57 -20s-41 5 -55 20
c-14 14 -19 33 -19 53c0 22 6 44 21 59s35 19 56 19z" />
    <glyph glyph-name="n" unicode="n" 
d="M116 0l16 783h104l-1 -91c8 12 17 23 28 33c60 59 145 79 228 79h79c73 0 145 -24 191 -79c49 -58 64 -136 64 -213v-12l-10 -500h-105l10 500c0 4 1 7 1 11c0 52 -8 105 -38 147c-26 37 -70 56 -115 56h-78c-68 0 -137 -12 -190 -56c-47 -39 -68 -98 -69 -158l-10 -500
h-105z" />
    <glyph glyph-name="percent" unicode="%" horiz-adv-x="1591" 
d="M259 -45l949 990h142l-949 -990h-142zM458 810h-50c-36 0 -73 -9 -99 -35c-27 -27 -36 -66 -36 -105c0 -35 8 -70 32 -95c25 -26 61 -35 97 -35h50c36 0 73 9 99 35c27 27 36 66 36 105c0 35 -8 70 -32 95c-25 26 -61 35 -97 35zM460 900c64 0 128 -14 173 -58
c42 -41 58 -100 58 -160c0 -66 -17 -130 -64 -174s-112 -58 -176 -58h-51c-64 0 -128 14 -173 58c-42 41 -58 100 -58 160c0 66 17 130 64 174s112 58 176 58h51zM1207 360h-51c-36 0 -72 -9 -98 -35c-27 -27 -36 -66 -36 -105c0 -35 8 -70 32 -95c25 -26 61 -35 97 -35h50
c36 0 72 9 98 35c27 27 37 66 37 105c0 35 -9 70 -33 95c-25 26 -60 35 -96 35zM1208 450c64 0 129 -14 174 -58c42 -41 58 -100 58 -160c0 -66 -18 -130 -65 -174s-112 -58 -176 -58h-50c-64 0 -128 14 -173 58c-42 41 -59 100 -59 160c0 66 18 130 65 174s112 58 176 58
h50z" />
    <glyph glyph-name="q" unicode="q" horiz-adv-x="989" 
d="M867 -300h-104l8 427c-8 -14 -16 -28 -26 -41c-52 -70 -136 -107 -223 -107h-94c-98 0 -195 32 -257 107c-66 79 -86 184 -86 288c0 120 22 235 98 323c65 75 163 107 261 107h94c87 0 170 -37 219 -107c9 -13 18 -27 25 -41l2 127h105zM537 714h-94
c-71 0 -140 -28 -184 -84c-56 -71 -69 -160 -69 -254c0 -80 12 -160 59 -223c42 -56 110 -84 181 -84h94c71 0 140 28 184 84c56 71 69 161 69 255c0 80 -13 159 -60 222c-42 56 -109 84 -180 84z" />
    <glyph glyph-name="Racute" unicode="&#x154;" horiz-adv-x="980" 
d="M136 0l18 900h410c98 0 198 -7 284 -53c56 -30 97 -85 97 -149c0 -67 -44 -124 -103 -155c-80 -42 -170 -52 -259 -53l387 -490h-139l-368 490h-213l-10 -490h-104zM549 1147h150l-212 -180h-111zM256 810l-4 -230h306c71 0 142 3 208 30c39 16 75 45 75 86
c0 40 -33 68 -71 84c-65 27 -136 30 -207 30h-307z" />
    <glyph glyph-name="x" unicode="x" horiz-adv-x="786" 
d="M58 783h125l221 -297l236 297h119l-297 -375l304 -408h-125l-243 327l-259 -327h-120l321 404z" />
    <glyph glyph-name="S" unicode="S" horiz-adv-x="1009" 
d="M94 161l100 34c10 -33 31 -62 60 -81c57 -38 127 -45 196 -45h102c70 0 142 5 202 43c45 29 68 81 68 135c0 73 -55 134 -127 135l-366 54c-118 2 -207 103 -207 222c0 78 28 155 89 200c75 55 169 63 261 63h92c90 0 182 -13 253 -67c34 -26 58 -61 72 -100l-100 -31
c-10 26 -27 48 -50 64c-51 36 -114 44 -177 44h-92c-64 0 -129 -5 -182 -41c-42 -29 -61 -78 -61 -130c0 -69 40 -133 105 -134l367 -54c126 -2 227 -100 227 -224c0 -81 -30 -159 -95 -204c-81 -57 -183 -65 -281 -65h-102c-97 0 -195 13 -273 69c-39 28 -67 68 -81 113z
" />
    <glyph glyph-name="A" unicode="A" horiz-adv-x="1077" 
d="M19 0l487 900h100l451 -900h-116l-172 343h-459l-186 -343h-105zM724 433l-176 350l-190 -350h366z" />
    <glyph glyph-name="Y" unicode="Y" horiz-adv-x="1009" 
d="M28 900h144l344 -351l358 351h143l-451 -443l-9 -457h-105l9 457z" />
    <glyph glyph-name="oslash" unicode="&#xf8;" horiz-adv-x="970" 
d="M548 714h-97c-72 0 -144 -27 -190 -84c-57 -70 -71 -160 -71 -254c0 -65 9 -130 38 -186l471 475c-42 33 -96 49 -151 49zM550 804c80 0 160 -20 221 -67l45 46h131l-113 -114c50 -75 66 -168 66 -261c0 -120 -22 -235 -99 -322c-67 -75 -168 -107 -268 -107h-97
c-80 0 -160 20 -221 67l-46 -46h-130l113 114c-50 75 -67 168 -67 261c0 120 23 235 100 322c67 75 168 107 268 107h97zM286 118c42 -33 97 -49 152 -49h97c72 0 144 27 190 84c57 70 71 160 71 254c0 65 -9 130 -38 186z" />
    <glyph glyph-name="dieresis" unicode="&#xa8;" horiz-adv-x="407" 
d="M46 855c21 0 42 -5 56 -20c14 -14 18 -33 18 -53c0 -22 -5 -44 -20 -59s-36 -20 -57 -20s-41 5 -55 20c-14 14 -19 34 -19 54c0 22 6 43 21 58s35 20 56 20zM395 855c21 0 42 -5 56 -20c14 -14 19 -33 19 -53c0 -22 -6 -44 -21 -59s-36 -20 -57 -20s-41 5 -55 20
c-14 14 -19 34 -19 54c0 22 6 43 21 58s35 20 56 20z" />
    <glyph glyph-name="o" unicode="o" horiz-adv-x="970" 
d="M548 714h-97c-72 0 -144 -27 -190 -84c-57 -70 -71 -160 -71 -254c0 -80 13 -160 61 -223c44 -57 115 -84 187 -84h97c72 0 144 27 190 84c57 70 71 160 71 254c0 80 -14 160 -62 223c-44 57 -114 84 -186 84zM550 804c100 0 199 -32 263 -107c67 -79 87 -184 87 -289
c0 -120 -22 -235 -99 -322c-67 -75 -168 -107 -268 -107h-97c-100 0 -199 32 -263 107c-67 79 -88 184 -88 289c0 120 23 235 100 322c67 75 168 107 268 107h97z" />
    <glyph glyph-name="sacute" unicode="&#x15b;" horiz-adv-x="776" 
d="M70 145l101 28c7 -26 21 -49 43 -66c39 -30 89 -38 139 -38h72c50 0 103 4 144 35c34 26 49 68 49 112c0 57 -32 110 -86 117l-263 31c-100 12 -168 104 -168 207c0 67 18 134 69 177c56 47 131 56 203 56h62c71 0 144 -13 197 -59c29 -25 47 -59 57 -95l-101 -29
c-6 22 -18 42 -35 57c-32 28 -77 36 -120 36h-62c-44 0 -89 -6 -123 -34c-31 -26 -42 -67 -42 -109c0 -56 25 -111 76 -117l263 -31c103 -13 177 -101 177 -205c0 -70 -21 -140 -75 -182c-62 -49 -144 -57 -223 -57h-72c-78 0 -157 13 -217 61c-33 27 -54 64 -65 105z
M491 1194h150l-212 -180h-111z" />
    <glyph glyph-name="J" unicode="J" horiz-adv-x="854" 
d="M746 900l-13 -648c-2 -77 -30 -153 -90 -202c-69 -56 -158 -71 -246 -71h-86c-88 0 -177 15 -243 71c-21 18 -38 38 -51 62l92 51c9 -18 21 -33 37 -46c46 -38 106 -48 166 -48h86c60 0 122 10 169 48c41 32 60 83 61 135l13 648h105z" />
    <glyph glyph-name="dotaccent" unicode="&#x2d9;" horiz-adv-x="349" 
d="M192 855c21 0 41 -5 55 -20c14 -14 19 -33 19 -53c0 -22 -6 -44 -21 -59s-35 -20 -56 -20s-42 5 -56 20c-14 14 -19 34 -19 54c0 22 6 43 21 58s36 20 57 20z" />
    <glyph glyph-name="y" unicode="y" horiz-adv-x="815" 
d="M25 783h114l275 -639l301 639h106l-510 -1083h-106l150 318z" />
    <glyph glyph-name="yacute" unicode="&#xfd;" horiz-adv-x="815" 
d="M25 783h114l275 -639l301 639h106l-510 -1083h-106l150 318zM510 1194h150l-212 -180h-111z" />
    <glyph glyph-name="dotlessj" unicode="&#x237;" horiz-adv-x="407" 
d="M307 783l-18 -899c-1 -57 -20 -114 -63 -152c-46 -41 -109 -53 -170 -53h-47c-61 0 -123 12 -168 53c-22 21 -38 47 -47 76l100 32c5 -16 13 -30 25 -41c24 -23 59 -30 92 -30h47c33 0 67 7 92 30c24 22 33 53 34 85l18 899h105z" />
    <glyph glyph-name="braceleft" unicode="{" horiz-adv-x="592" 
d="M274 330c49 -40 72 -105 72 -171v-6l-3 -178c-2 -79 60 -142 126 -179l-45 -82c-96 51 -188 144 -186 261l4 178c1 35 -11 70 -38 92c-30 26 -71 33 -111 33l2 104c40 0 82 7 113 33c28 22 40 57 41 92l3 178c2 117 99 210 197 261l41 -82c-68 -38 -131 -100 -133 -179
l-4 -178c-1 -68 -26 -136 -79 -177z" />
    <glyph glyph-name="numbersign" unicode="#" horiz-adv-x="1048" 
d="M44 270l2 90h229l47 180h-234l2 90h255l71 270h106l-71 -270h258l71 270h106l-71 -270h206l-1 -90h-229l-47 -180h233l-2 -90h-255l-71 -270h-105l71 270h-259l-70 -270h-106l71 270h-207zM638 360l48 180h-259l-47 -180h258z" />
    <glyph glyph-name="quoteleft" unicode="&#x2018;" horiz-adv-x="495" 
d="M300 900h84l-153 -292h-113z" />
    <glyph glyph-name="ffl" unicode="&#xfb04;" horiz-adv-x="1348" 
d="M971 856c0 24 -55 25 -78 25h-29c-23 0 -79 -1 -79 -25l-1 -73h175l-2 -90h-175l-14 -693h-104l14 693h-337l-14 -693h-105l14 693h-166l1 90h167l1 73c1 35 20 67 50 85c40 25 88 30 135 30h30c69 0 144 -16 170 -70l-95 -45c0 24 -54 25 -77 25h-30
c-23 0 -78 -1 -78 -25l-2 -73h337l2 73c1 35 19 67 49 85c40 25 88 30 135 30h30c69 0 145 -16 171 -70zM1128 0l19 950h104l-19 -950h-104z" />
    <glyph glyph-name="perthousandzero" horiz-adv-x="669" 
d="M369 360h-55c-39 0 -78 -8 -107 -35c-28 -26 -40 -64 -40 -104c0 -36 10 -72 36 -96c28 -27 67 -35 106 -35h55c39 0 79 8 108 35c28 26 39 64 39 104c0 36 -9 72 -35 96c-28 27 -68 35 -107 35zM371 450c67 0 134 -13 183 -58c44 -40 62 -101 62 -161
c0 -66 -20 -130 -68 -173c-50 -45 -119 -58 -186 -58h-55c-67 0 -134 13 -183 58c-44 40 -61 101 -61 161c0 66 20 130 68 173c50 45 118 58 185 58h55z" />
    <glyph glyph-name="lcaron" unicode="&#x13e;" horiz-adv-x="337" 
d="M116 0l19 950h105l-19 -950h-105zM467 950h113l-181 -292h-84z" />
    <glyph glyph-name="three" unicode="3" 
d="M359 495h126c59 0 120 9 168 44c40 29 61 77 61 128c0 47 -19 92 -56 120c-47 35 -108 44 -167 44h-86c-59 0 -120 -9 -168 -44c-22 -16 -38 -37 -48 -62l-97 39c15 35 38 66 69 90c70 54 159 67 246 67h86c87 0 176 -13 243 -67c55 -44 82 -113 82 -185
c0 -69 -32 -132 -89 -169c-22 -14 -45 -25 -69 -33c24 -10 47 -23 68 -39c55 -44 82 -113 82 -185c0 -77 -30 -151 -90 -197c-70 -54 -159 -67 -246 -67h-86c-87 0 -176 13 -243 67c-30 24 -52 55 -65 90l98 39c9 -25 25 -46 46 -62c47 -35 107 -44 166 -44h86
c59 0 120 9 168 44c40 29 61 77 61 128c0 47 -19 92 -56 120c-47 35 -107 44 -166 44h-126z" />
    <glyph glyph-name="Ucircumflex" unicode="&#xdb;" horiz-adv-x="1152" 
d="M1040 900l-12 -607c-2 -89 -36 -176 -106 -232c-82 -65 -189 -82 -292 -82h-109c-103 0 -209 17 -288 82c-66 54 -97 138 -97 225v7l12 607h104l-12 -607v-5c0 -62 24 -123 72 -161c59 -47 135 -58 211 -58h109c76 0 154 11 214 58c51 39 77 102 78 166l12 607h104z
M593 1084l-145 -117h-115l184 180h154l177 -180h-115z" />
    <glyph glyph-name="ohungarumlaut" unicode="&#x151;" horiz-adv-x="970" 
d="M271 1014l160 180h144l-197 -180h-107zM722 1194h144l-197 -180h-107zM548 714h-97c-72 0 -144 -27 -190 -84c-57 -70 -71 -160 -71 -254c0 -80 13 -160 61 -223c44 -57 115 -84 187 -84h97c72 0 144 27 190 84c57 70 71 160 71 254c0 80 -14 160 -62 223
c-44 57 -114 84 -186 84zM550 804c100 0 199 -32 263 -107c67 -79 87 -184 87 -289c0 -120 -22 -235 -99 -322c-67 -75 -168 -107 -268 -107h-97c-100 0 -199 32 -263 107c-67 79 -88 184 -88 289c0 120 23 235 100 322c67 75 168 107 268 107h97z" />
    <glyph glyph-name="bracketleft" unicode="[" horiz-adv-x="543" 
d="M169 -300l25 1245h310l-2 -90h-206l-21 -1065h206l-2 -90h-310z" />
    <glyph glyph-name="oacute" unicode="&#xf3;" horiz-adv-x="970" 
d="M588 1194h150l-212 -180h-111zM548 714h-97c-72 0 -144 -27 -190 -84c-57 -70 -71 -160 -71 -254c0 -80 13 -160 61 -223c44 -57 115 -84 187 -84h97c72 0 144 27 190 84c57 70 71 160 71 254c0 80 -14 160 -62 223c-44 57 -114 84 -186 84zM550 804
c100 0 199 -32 263 -107c67 -79 87 -184 87 -289c0 -120 -22 -235 -99 -322c-67 -75 -168 -107 -268 -107h-97c-100 0 -199 32 -263 107c-67 79 -88 184 -88 289c0 120 23 235 100 322c67 75 168 107 268 107h97z" />
    <glyph glyph-name="nine" unicode="9" horiz-adv-x="951" 
d="M95 159l98 38c10 -26 25 -50 46 -70c48 -44 115 -58 181 -58h94c66 0 133 14 183 58c47 42 67 104 68 166l3 150c-8 -10 -16 -21 -26 -30c-59 -56 -142 -75 -223 -75h-94c-93 0 -188 16 -258 75c-60 51 -87 129 -87 209c0 87 30 169 96 223c73 59 168 76 261 76h94
c93 0 188 -17 258 -76c60 -51 87 -129 87 -209v-7l-7 -336c-2 -87 -30 -174 -96 -232c-71 -63 -167 -82 -261 -82h-94c-94 0 -189 19 -258 82c-30 27 -51 61 -65 98zM529 831h-94c-65 0 -132 -11 -183 -52c-46 -37 -67 -95 -67 -155c0 -55 19 -109 61 -144
c50 -41 116 -52 181 -52h94c65 0 132 11 183 52c46 37 68 94 68 154c0 55 -20 110 -62 145c-50 41 -116 52 -181 52z" />
    <glyph glyph-name="backslash" unicode="\" horiz-adv-x="728" 
d="M564 -45l-506 990h124l506 -990h-124z" />
    <glyph glyph-name="atilde" unicode="&#xe3;" horiz-adv-x="912" 
d="M487 483c82 0 165 -24 212 -84l2 84v9c0 59 -14 119 -53 162s-97 60 -156 60h-82c-59 0 -118 -17 -159 -60c-14 -15 -25 -31 -34 -49l-93 44c13 26 30 51 51 72c62 61 150 83 237 83h81c87 0 174 -22 234 -83c58 -59 78 -143 78 -227v-11l-10 -483h-104l1 63
c-49 -59 -133 -84 -215 -84h-82c-84 0 -169 14 -234 66c-54 43 -79 110 -79 180c0 76 29 148 87 193c67 52 152 65 236 65h82zM365 1065c-38 0 -102 -6 -103 -46h-83c1 37 19 72 50 93c40 27 89 33 137 33c60 0 114 -33 174 -33c38 0 101 6 102 46h84
c-1 -37 -19 -72 -50 -93c-40 -27 -89 -33 -137 -33c-60 0 -114 33 -174 33zM485 393h-81c-56 0 -114 -8 -159 -42c-38 -29 -58 -74 -58 -123c0 -45 17 -90 53 -117c44 -34 101 -42 157 -42h82c56 0 114 8 159 42c38 28 58 75 58 122c0 45 -18 90 -54 118
c-44 34 -101 42 -157 42z" />
    <glyph glyph-name="Aacute" unicode="&#xc1;" horiz-adv-x="1077" 
d="M19 0l487 900h100l451 -900h-116l-172 343h-459l-186 -343h-105zM641 1147h150l-212 -180h-111zM724 433l-176 350l-190 -350h366z" />
    <glyph glyph-name="ccedilla" unicode="&#xe7;" horiz-adv-x="927" 
d="M637 -190c0 54 -79 64 -130 64h-127l43 105c-96 3 -189 35 -250 107c-67 79 -88 184 -88 289c0 120 23 235 100 322c67 75 168 107 268 107h97c100 0 199 -32 263 -107c33 -38 54 -83 68 -131l-100 -31c-10 34 -25 67 -47 95c-44 57 -114 84 -186 84h-97
c-72 0 -144 -27 -190 -84c-57 -70 -71 -160 -71 -254c0 -80 13 -160 61 -223c44 -57 115 -84 187 -84h97c72 0 144 27 190 84c23 28 39 61 50 95l99 -31c-15 -48 -39 -93 -73 -131c-67 -75 -168 -107 -268 -107h-32l-14 -33h22c55 0 112 -5 158 -35c33 -22 53 -59 53 -99
c0 -43 -21 -82 -57 -104c-47 -30 -105 -35 -160 -35h-49c-55 0 -112 5 -158 35c-27 17 -46 45 -52 76l82 18c8 -48 78 -57 129 -57h50c52 0 132 10 132 65z" />
    <glyph glyph-name="Lslash" unicode="&#x141;" horiz-adv-x="912" 
d="M854 0h-699l7 316l-118 -54l2 106l118 54l9 478h105l-9 -429l365 167l-3 -106l-364 -168l-6 -274h594z" />
    <glyph glyph-name="Sacute" unicode="&#x15a;" horiz-adv-x="1009" 
d="M94 161l100 34c10 -33 31 -62 60 -81c57 -38 127 -45 196 -45h102c70 0 142 5 202 43c45 29 68 81 68 135c0 73 -55 134 -127 135l-366 54c-118 2 -207 103 -207 222c0 78 28 155 89 200c75 55 169 63 261 63h92c90 0 182 -13 253 -67c34 -26 58 -61 72 -100l-100 -31
c-10 26 -27 48 -50 64c-51 36 -114 44 -177 44h-92c-64 0 -129 -5 -182 -41c-42 -29 -61 -78 -61 -130c0 -69 40 -133 105 -134l367 -54c126 -2 227 -100 227 -224c0 -81 -30 -159 -95 -204c-81 -57 -183 -65 -281 -65h-102c-97 0 -195 13 -273 69c-39 28 -67 68 -81 113z
M603 1147h150l-213 -180h-111z" />
    <glyph glyph-name="visiblespace" unicode="&#x2420;" horiz-adv-x="776" 
d="M39 0h104l-1 -75h489l2 75h104l-3 -165h-698z" />
    <glyph glyph-name="aring" unicode="&#xe5;" horiz-adv-x="912" 
d="M487 483c82 0 165 -24 212 -84l2 84v9c0 59 -14 119 -53 162s-97 60 -156 60h-82c-59 0 -118 -17 -159 -60c-14 -15 -25 -31 -34 -49l-93 44c13 26 30 51 51 72c62 61 150 83 237 83h81c87 0 174 -22 234 -83c58 -59 78 -143 78 -227v-11l-10 -483h-104l1 63
c-49 -59 -133 -84 -215 -84h-82c-84 0 -169 14 -234 66c-54 43 -79 110 -79 180c0 76 29 148 87 193c67 52 152 65 236 65h82zM485 393h-81c-56 0 -114 -8 -159 -42c-38 -29 -58 -74 -58 -123c0 -45 17 -90 53 -117c44 -34 101 -42 157 -42h82c56 0 114 8 159 42
c38 28 58 75 58 122c0 45 -18 90 -54 118c-44 34 -101 42 -157 42zM467 1044c41 0 82 18 82 61c0 17 -7 33 -20 43c-17 13 -39 16 -60 16h-30c-21 0 -44 -3 -61 -16c-14 -10 -21 -27 -21 -45c0 -42 39 -59 79 -59h31zM470 1224c40 0 80 -6 111 -31c25 -21 37 -53 37 -86
c0 -36 -12 -70 -40 -92c-32 -25 -72 -31 -112 -31h-31c-40 0 -80 6 -111 31c-25 21 -37 53 -37 86c0 36 13 70 41 92c32 25 72 31 112 31h30z" />
    <glyph glyph-name="m" unicode="m" horiz-adv-x="1407" 
d="M235 699c47 71 138 105 228 105h70c69 0 136 -25 178 -79c17 -21 29 -45 38 -70c11 25 27 49 46 70c53 57 131 79 208 79h69c69 0 137 -25 179 -79c46 -59 59 -135 59 -211v-14l-10 -500h-105l10 500c0 5 1 8 1 13c0 51 -7 102 -34 145c-22 35 -60 56 -102 56h-69
c-61 0 -124 -14 -169 -56c-43 -40 -61 -99 -62 -158l-10 -500h-104l10 500v13c0 51 -6 102 -33 145c-22 35 -60 56 -102 56h-70c-61 0 -123 -14 -168 -56c-43 -40 -61 -99 -62 -158l-10 -500h-105l16 783h104z" />
    <glyph glyph-name="ograve" unicode="&#xf2;" horiz-adv-x="970" 
d="M268 1194h150l166 -180h-111zM548 714h-97c-72 0 -144 -27 -190 -84c-57 -70 -71 -160 -71 -254c0 -80 13 -160 61 -223c44 -57 115 -84 187 -84h97c72 0 144 27 190 84c57 70 71 160 71 254c0 80 -14 160 -62 223c-44 57 -114 84 -186 84zM550 804
c100 0 199 -32 263 -107c67 -79 87 -184 87 -289c0 -120 -22 -235 -99 -322c-67 -75 -168 -107 -268 -107h-97c-100 0 -199 32 -263 107c-67 79 -88 184 -88 289c0 120 23 235 100 322c67 75 168 107 268 107h97z" />
    <glyph glyph-name="Cacute" unicode="&#x106;" horiz-adv-x="1310" 
d="M1239 244c-23 -54 -56 -103 -100 -143c-103 -93 -244 -122 -382 -122h-156c-138 0 -278 29 -378 122c-91 85 -127 210 -127 336c0 139 41 272 141 362c103 93 244 122 382 122h156c138 0 278 -29 378 -122c43 -40 74 -89 94 -143l-98 -39c-16 43 -40 83 -74 115
c-79 75 -191 99 -301 99h-156c-110 0 -223 -24 -305 -99c-80 -74 -112 -181 -112 -293c0 -101 27 -202 100 -271c79 -75 191 -99 301 -99h156c110 0 223 24 305 99c35 32 62 72 80 115zM782 1147h150l-212 -180h-111z" />
    <glyph glyph-name="six" unicode="6" horiz-adv-x="951" 
d="M873 741l-98 -38c-10 26 -24 50 -45 70c-48 44 -115 58 -181 58h-94l1 90h94c94 0 189 -19 258 -82c30 -27 51 -61 65 -98zM439 69h94c65 0 133 11 184 52c46 37 67 95 67 155c0 55 -19 109 -61 144c-50 41 -117 52 -182 52h-93c-65 0 -133 -11 -184 -52
c-46 -37 -67 -94 -67 -154c0 -55 19 -110 61 -145c50 -41 116 -52 181 -52zM438 -21c-93 0 -188 17 -258 76c-60 51 -87 129 -87 209v7l6 336c2 87 30 174 96 232c71 63 167 82 261 82c-2 -120 -5 -240 -7 -359l6 269c-66 0 -134 -14 -184 -58c-47 -42 -66 -104 -67 -166
l-3 -150c8 10 16 21 26 30c59 56 141 75 222 75h94c93 0 188 -16 258 -75c60 -51 87 -129 87 -209c0 -87 -29 -169 -95 -223c-73 -59 -168 -76 -261 -76h-94z" />
    <glyph glyph-name="egrave" unicode="&#xe8;" horiz-adv-x="960" 
d="M862 157c-15 -32 -35 -63 -62 -88c-71 -68 -170 -90 -267 -90h-97c-100 0 -199 32 -263 107c-67 79 -88 184 -88 289c0 120 23 235 100 322c67 75 168 107 268 107h97c100 0 199 -32 263 -107c67 -79 87 -184 87 -289v-16l-1 -46h-709c3 -70 19 -138 61 -193
c44 -57 115 -84 187 -84h97c69 0 140 18 190 67c19 19 32 40 43 63zM268 1194h150l166 -180h-111zM795 436c-3 70 -19 139 -61 194c-44 57 -114 84 -186 84h-97c-72 0 -144 -27 -190 -84c-44 -55 -63 -124 -69 -194h603z" />
    <glyph glyph-name="cwm" horiz-adv-x="0" 
d="M136 -1c0 -22 -18 -43 -45 -43c-23 0 -46 18 -45 45l19 900c0 22 17 43 44 43c23 0 46 -18 45 -45z" />
    <glyph glyph-name="hyphen" unicode="-" horiz-adv-x="563" 
d="M85 346l1 90h408l-2 -90h-407z" />
    <glyph glyph-name="scaron" unicode="&#x161;" horiz-adv-x="776" 
d="M70 145l101 28c7 -26 21 -49 43 -66c39 -30 89 -38 139 -38h72c50 0 103 4 144 35c34 26 49 68 49 112c0 57 -32 110 -86 117l-263 31c-100 12 -168 104 -168 207c0 67 18 134 69 177c56 47 131 56 203 56h62c71 0 144 -13 197 -59c29 -25 47 -59 57 -95l-101 -29
c-6 22 -18 42 -35 57c-32 28 -77 36 -120 36h-62c-44 0 -89 -6 -123 -34c-31 -26 -42 -67 -42 -109c0 -56 25 -111 76 -117l263 -31c103 -13 177 -101 177 -205c0 -70 -21 -140 -75 -182c-62 -49 -144 -57 -223 -57h-72c-78 0 -157 13 -217 61c-33 27 -54 64 -65 105z
M549 1194h114l-183 -180h-155l-176 180h114l141 -117z" />
    <glyph glyph-name="Zacute" unicode="&#x179;" horiz-adv-x="989" 
d="M65 810l1 90h893l-2 -100l-776 -710h762l-2 -90h-893l2 100l777 710h-762zM598 1147h150l-212 -180h-112z" />
    <glyph glyph-name="igrave" unicode="&#xec;" horiz-adv-x="369" 
d="M132 0l16 783h104l-16 -783h-104zM-33 1194h150l166 -180h-111z" />
    <glyph glyph-name="acircumflex" unicode="&#xe2;" horiz-adv-x="912" 
d="M487 483c82 0 165 -24 212 -84l2 84v9c0 59 -14 119 -53 162s-97 60 -156 60h-82c-59 0 -118 -17 -159 -60c-14 -15 -25 -31 -34 -49l-93 44c13 26 30 51 51 72c62 61 150 83 237 83h81c87 0 174 -22 234 -83c58 -59 78 -143 78 -227v-11l-10 -483h-104l1 63
c-49 -59 -133 -84 -215 -84h-82c-84 0 -169 14 -234 66c-54 43 -79 110 -79 180c0 76 29 148 87 193c67 52 152 65 236 65h82zM485 393h-81c-56 0 -114 -8 -159 -42c-38 -29 -58 -74 -58 -123c0 -45 17 -90 53 -117c44 -34 101 -42 157 -42h82c56 0 114 8 159 42
c38 28 58 75 58 122c0 45 -18 90 -54 118c-44 34 -101 42 -157 42zM453 1131l-145 -117h-114l183 180h155l176 -180h-114z" />
    <glyph glyph-name="M" unicode="M" horiz-adv-x="1504" 
d="M136 0l18 900h100l499 -796l533 796h100l-18 -900h-105l15 711l-476 -711h-100l-448 713l-14 -713h-104z" />
    <glyph glyph-name="N" unicode="N" horiz-adv-x="1213" 
d="M136 0l18 900h100l721 -755l15 755h105l-18 -900h-100l-722 755l-15 -755h-104z" />
    <glyph glyph-name="at" unicode="@" horiz-adv-x="1300" 
d="M1174 99c-19 -19 -41 -34 -65 -47c-116 -63 -251 -73 -382 -73h-155c-138 0 -278 29 -378 122c-91 85 -127 210 -127 336c0 139 41 272 141 362c103 93 244 122 382 122h156c138 0 278 -29 378 -122c91 -85 127 -210 127 -336c0 -75 -27 -138 -85 -179
c-67 -48 -150 -59 -231 -59h-144l1 56c-36 -39 -89 -56 -142 -56h-54c-66 0 -133 14 -181 59c-43 40 -61 100 -61 160c0 66 20 129 68 172c50 45 117 59 183 59h54c53 0 106 -17 140 -56l1 56h105l-7 -360h39c53 0 108 6 153 35c38 25 56 63 56 111c0 101 -28 202 -101 271
c-79 75 -191 99 -301 99h-155c-110 0 -223 -24 -305 -99c-80 -74 -113 -181 -113 -293c0 -101 28 -202 101 -271c79 -75 191 -99 301 -99h156c104 0 209 6 304 50c27 13 53 30 72 51zM657 585h-54c-38 0 -77 -9 -105 -35s-39 -64 -39 -104c0 -36 10 -71 35 -96
c27 -26 66 -35 104 -35h54c38 0 77 9 105 35s39 64 39 104c0 36 -10 71 -35 96c-27 26 -66 35 -104 35z" />
    <glyph glyph-name="idieresis" unicode="&#xef;" horiz-adv-x="369" 
d="M132 0l16 783h104l-16 -783h-104zM27 1149c21 0 41 -5 55 -20c14 -14 19 -33 19 -53c0 -22 -6 -44 -21 -59s-35 -19 -56 -19s-42 4 -56 19c-14 14 -18 34 -18 54c0 22 5 43 20 58s36 20 57 20zM376 1149c21 0 42 -5 56 -20c14 -14 18 -33 18 -53c0 -22 -6 -44 -21 -59
s-35 -19 -56 -19s-42 4 -56 19c-14 14 -18 34 -18 54c0 22 6 43 21 58s35 20 56 20z" />
    <glyph glyph-name="colon" unicode=":" horiz-adv-x="415" 
d="M210 146c20 0 40 -5 54 -19c13 -13 18 -32 18 -51c0 -21 -5 -42 -20 -57c-14 -14 -35 -19 -55 -19s-39 5 -53 19c-13 13 -18 33 -18 52c0 21 5 41 20 56c14 14 34 19 54 19zM223 783c20 0 40 -5 54 -19c13 -13 18 -33 18 -52c0 -21 -5 -41 -20 -56
c-14 -14 -35 -19 -55 -19s-40 5 -54 19c-13 13 -18 32 -18 51c0 21 6 42 21 57c14 14 34 19 54 19z" />
    <glyph glyph-name="l" unicode="l" horiz-adv-x="337" 
d="M116 0l19 950h105l-19 -950h-105z" />
    <glyph glyph-name="Iacute" unicode="&#xcd;" horiz-adv-x="415" 
d="M155 0l18 900h105l-18 -900h-105zM310 1147h150l-212 -180h-111z" />
    <glyph glyph-name="two" unicode="2" 
d="M78 0l1 90c120 75 242 150 362 225c141 84 292 190 292 352c0 47 -19 92 -56 120c-47 35 -107 44 -166 44h-86c-59 0 -120 -9 -168 -44c-22 -16 -39 -37 -49 -62l-96 39c15 35 38 66 69 90c70 54 158 67 245 67h87c87 0 176 -13 243 -67c55 -44 82 -113 82 -185
c0 -205 -188 -338 -366 -444c-72 -45 -145 -90 -217 -135h571l-2 -90h-746z" />
    <glyph glyph-name="zero" unicode="0" horiz-adv-x="1009" 
d="M568 831h-94c-75 0 -152 -23 -193 -85c-57 -85 -59 -193 -61 -296c0 -20 -1 -40 -1 -60c0 -84 7 -168 50 -236c39 -62 115 -85 190 -85h94c75 0 152 23 193 85c57 85 59 193 61 296c0 20 1 40 1 60c0 84 -7 168 -50 236c-39 62 -115 85 -190 85zM570 921
c104 0 210 -23 270 -105c62 -86 72 -193 72 -301c0 -22 -1 -43 -1 -65c-3 -128 -6 -263 -85 -366c-63 -82 -171 -105 -275 -105h-94c-104 0 -210 23 -270 105c-62 86 -72 193 -72 301c0 22 1 43 1 65c3 128 6 263 85 366c63 82 171 105 275 105h94z" />
    <glyph glyph-name="g" unicode="g" horiz-adv-x="989" 
d="M889 783l-17 -821c-2 -80 -32 -160 -95 -210c-73 -58 -168 -73 -261 -73h-94c-93 0 -187 15 -258 73c-40 33 -66 78 -78 128l101 27c9 -35 27 -66 55 -88c50 -40 117 -50 182 -50h94c65 0 131 10 183 50c44 34 66 88 67 143l3 183c-8 -14 -16 -27 -26 -40
c-53 -69 -137 -105 -223 -105h-94c-98 0 -194 31 -257 105c-65 77 -86 179 -86 281c0 117 23 228 98 313c66 74 163 105 261 105h94c86 0 169 -36 219 -105c9 -13 18 -26 25 -40l2 124h105zM537 714h-94c-70 0 -140 -26 -184 -81c-55 -68 -69 -155 -69 -246
c0 -77 12 -155 59 -216c42 -55 111 -81 181 -81h94c70 0 140 26 184 81c55 68 69 155 69 246c0 77 -13 155 -60 216c-42 55 -110 81 -180 81z" />
    <glyph glyph-name="Tcedilla" unicode="&#x162;" horiz-adv-x="892" 
d="M598 -190c0 54 -78 64 -129 64h-128l53 128l16 808h-387l2 90h878l-2 -90h-386l-17 -810h-27l-22 -54h21c55 0 112 -5 158 -35c33 -22 54 -59 54 -99c0 -43 -22 -82 -58 -104c-47 -30 -104 -35 -159 -35h-50c-55 0 -112 5 -158 35c-27 17 -46 45 -52 76l82 18
c8 -48 78 -57 129 -57h50c52 0 132 10 132 65z" />
    <glyph glyph-name="Tcaron" unicode="&#x164;" horiz-adv-x="892" 
d="M23 810l2 90h878l-2 -90h-386l-17 -810h-104l16 810h-387zM607 1147h114l-183 -180h-155l-176 180h114l141 -116z" />
    <glyph glyph-name="hungarumlaut" unicode="&#x2dd;" horiz-adv-x="407" 
d="M-10 720l160 180h144l-197 -180h-107zM441 900h144l-197 -180h-107z" />
    <glyph glyph-name="Lacute" unicode="&#x139;" horiz-adv-x="892" 
d="M136 0l18 900h104l-16 -810h594l-2 -90h-698zM291 1147h150l-212 -180h-111z" />
    <glyph glyph-name="quotesinglbase" unicode="&#x201a;" horiz-adv-x="495" 
d="M269 112h114l-182 -292h-84z" />
    <glyph glyph-name="grave" unicode="`" horiz-adv-x="388" 
d="M45 900h150l166 -180h-111z" />
    <glyph glyph-name="otilde" unicode="&#xf5;" horiz-adv-x="970" 
d="M413 1065c-38 0 -101 -6 -102 -46h-84c1 37 19 72 50 93c40 27 90 33 138 33c60 0 114 -33 174 -33c38 0 101 6 102 46h83c-1 -37 -19 -72 -50 -93c-40 -27 -89 -33 -137 -33c-60 0 -114 33 -174 33zM548 714h-97c-72 0 -144 -27 -190 -84c-57 -70 -71 -160 -71 -254
c0 -80 13 -160 61 -223c44 -57 115 -84 187 -84h97c72 0 144 27 190 84c57 70 71 160 71 254c0 80 -14 160 -62 223c-44 57 -114 84 -186 84zM550 804c100 0 199 -32 263 -107c67 -79 87 -184 87 -289c0 -120 -22 -235 -99 -322c-67 -75 -168 -107 -268 -107h-97
c-100 0 -199 32 -263 107c-67 79 -88 184 -88 289c0 120 23 235 100 322c67 75 168 107 268 107h97z" />
    <glyph glyph-name="uhungarumlaut" unicode="&#x171;" 
d="M821 783l-16 -783h-104l1 78c-5 -7 -10 -14 -15 -20c-48 -55 -120 -79 -192 -79h-79c-84 0 -169 20 -228 79c-56 56 -76 136 -76 216v9l10 500h105l-10 -500v-7c0 -56 12 -111 50 -151c38 -41 95 -56 151 -56h78c56 0 114 15 154 56c41 42 55 100 56 158l10 500h105z
M242 1014l160 180h144l-197 -180h-107zM693 1194h144l-197 -180h-107z" />
    <glyph glyph-name="dcroat" unicode="&#x111;" horiz-adv-x="1019" 
d="M873 0h-104l2 127c-8 -14 -16 -28 -26 -41c-52 -70 -136 -107 -223 -107h-94c-98 0 -195 32 -257 107c-66 79 -86 184 -86 288c0 120 22 235 98 323c65 75 163 107 261 107h47v1h294l3 145h104l-3 -145h126l-2 -90h-126zM537 714h-94c-71 0 -140 -28 -184 -84
c-56 -71 -69 -160 -69 -254c0 -80 12 -160 59 -223c42 -56 110 -84 181 -84h94c71 0 140 28 184 84c56 71 69 161 69 255c0 80 -13 159 -60 222c-42 56 -109 84 -180 84zM782 656l1 59h-40c15 -17 28 -38 39 -59z" />
    <glyph glyph-name="K" unicode="K" horiz-adv-x="1028" 
d="M154 900h104l-6 -306l558 306h222l-513 -281l495 -619h-141l-452 565l-171 -94l-10 -471h-104z" />
    <glyph glyph-name="zdotaccent" unicode="&#x17c;" horiz-adv-x="718" 
d="M62 693l2 90h621l-2 -100l-509 -593h497l-2 -90h-621l2 100l510 593h-498zM376 1149c21 0 42 -5 56 -20c14 -14 18 -33 18 -53c0 -22 -6 -44 -21 -59s-35 -19 -56 -19s-42 4 -56 19c-14 14 -18 34 -18 54c0 22 6 43 21 58s35 20 56 20z" />
    <glyph glyph-name="period" unicode="." horiz-adv-x="415" 
d="M210 146c20 0 40 -5 54 -19c13 -13 18 -32 18 -51c0 -21 -5 -42 -20 -57c-14 -14 -35 -19 -55 -19s-39 5 -53 19c-13 13 -18 33 -18 52c0 21 5 41 20 56c14 14 34 19 54 19z" />
    <glyph glyph-name="k" unicode="k" horiz-adv-x="844" 
d="M145 950h105l-12 -591l468 424h134l-356 -322l340 -461h-140l-284 384l-165 -149l-5 -235h-104z" />
    <glyph glyph-name="W" unicode="W" horiz-adv-x="1513" 
d="M37 900h116l374 -777l186 357l-202 420h115l147 -305l159 305h107l-215 -412l176 -365l405 777h107l-469 -900h-100l-179 373l-194 -373h-100z" />
    <glyph glyph-name="X" unicode="X" horiz-adv-x="960" 
d="M50 900h134l308 -362l324 362h130l-391 -436l396 -464h-134l-330 388l-347 -388h-130l414 462z" />
    <glyph glyph-name="ogonek" unicode="&#x2db;" horiz-adv-x="388" 
d="M392 -276c-42 -40 -116 -51 -180 -51h-49c-55 0 -112 5 -158 35c-33 22 -54 59 -54 99c0 97 127 102 197 157l135 108l-4 -72l-136 -108c-38 -30 -109 -30 -109 -83c0 -54 79 -64 130 -64h50c45 0 99 7 122 37z" />
    <glyph glyph-name="agrave" unicode="&#xe0;" horiz-adv-x="912" 
d="M487 483c82 0 165 -24 212 -84l2 84v9c0 59 -14 119 -53 162s-97 60 -156 60h-82c-59 0 -118 -17 -159 -60c-14 -15 -25 -31 -34 -49l-93 44c13 26 30 51 51 72c62 61 150 83 237 83h81c87 0 174 -22 234 -83c58 -59 78 -143 78 -227v-11l-10 -483h-104l1 63
c-49 -59 -133 -84 -215 -84h-82c-84 0 -169 14 -234 66c-54 43 -79 110 -79 180c0 76 29 148 87 193c67 52 152 65 236 65h82zM219 1194h150l167 -180h-112zM485 393h-81c-56 0 -114 -8 -159 -42c-38 -29 -58 -74 -58 -123c0 -45 17 -90 53 -117c44 -34 101 -42 157 -42h82
c56 0 114 8 159 42c38 28 58 75 58 122c0 45 -18 90 -54 118c-44 34 -101 42 -157 42z" />
    <glyph glyph-name="aogonek" unicode="&#x105;" horiz-adv-x="912" 
d="M487 483c82 0 165 -24 212 -84l2 84v9c0 59 -14 119 -53 162s-97 60 -156 60h-82c-59 0 -118 -17 -159 -60c-14 -15 -25 -31 -34 -49l-93 44c13 26 30 51 51 72c62 61 150 83 237 83h81c87 0 174 -22 234 -83c58 -59 78 -143 78 -227v-11l-8 -417l7 6l-4 -72l-136 -108
c-38 -30 -109 -30 -109 -83c0 -54 79 -64 130 -64h50c45 0 99 7 122 37l55 -58c-42 -40 -115 -51 -179 -51h-50c-55 0 -111 5 -157 35c-33 22 -54 59 -54 99c0 97 127 102 197 157l45 36h-23l1 63c-49 -59 -133 -84 -215 -84h-82c-84 0 -169 14 -234 66
c-54 43 -79 110 -79 180c0 76 29 148 87 193c67 52 152 65 236 65h82zM485 393h-81c-56 0 -114 -8 -159 -42c-38 -29 -58 -74 -58 -123c0 -45 17 -90 53 -117c44 -34 101 -42 157 -42h82c56 0 114 8 159 42c38 28 58 75 58 122c0 45 -18 90 -54 118c-44 34 -101 42 -157 42z
" />
    <glyph glyph-name="quotedbl" unicode="&#x22;" horiz-adv-x="572" 
d="M76 900h105l-6 -292h-105zM532 900l-6 -292h-104l6 292h104z" />
    <glyph glyph-name="t" unicode="t" horiz-adv-x="524" 
d="M31 693l2 90h192l4 167h104l-3 -167h193l-2 -90h-193l-14 -693h-104l14 693h-193z" />
    <glyph glyph-name="question" unicode="?" horiz-adv-x="854" 
d="M361 281l4 214h91c54 0 111 10 154 44c38 31 56 78 56 128c0 46 -17 91 -52 120c-41 34 -97 44 -151 44h-78c-54 0 -110 -10 -153 -44c-20 -16 -35 -37 -44 -60l-97 37c14 35 35 66 65 90c64 53 149 67 231 67h78c82 0 166 -14 228 -67c53 -45 77 -115 77 -185
c0 -77 -27 -150 -85 -197c-61 -50 -139 -65 -217 -67l-3 -124h-104zM410 146c20 0 40 -5 54 -19c13 -13 18 -32 18 -51c0 -21 -5 -42 -20 -57c-14 -14 -35 -19 -55 -19s-39 5 -53 19c-13 13 -18 33 -18 52c0 21 5 41 20 56c14 14 34 19 54 19z" />
    <glyph glyph-name="Adieresis" unicode="&#xc4;" horiz-adv-x="1077" 
d="M19 0l487 900h100l451 -900h-116l-172 343h-459l-186 -343h-105zM381 1102c21 0 42 -4 56 -19c14 -14 18 -34 18 -54c0 -22 -6 -43 -21 -58s-35 -20 -56 -20s-42 5 -56 20c-14 14 -18 33 -18 53c0 22 5 44 20 59s36 19 57 19zM730 1102c21 0 42 -4 56 -19
c14 -14 18 -34 18 -54c0 -22 -6 -43 -21 -58s-35 -20 -56 -20s-42 5 -56 20c-14 14 -18 33 -18 53c0 22 6 44 21 59s35 19 56 19zM724 433l-176 350l-190 -350h366z" />
    <glyph glyph-name="five" unicode="5" horiz-adv-x="931" 
d="M118 367l10 533h691l-1 -90h-587l-7 -341c52 71 136 116 227 116h85c88 0 178 -19 242 -79c58 -55 81 -134 81 -215c0 -90 -28 -176 -95 -233c-72 -61 -169 -79 -262 -79h-93c-93 0 -189 18 -258 79c-21 19 -39 40 -52 64l92 51c9 -18 22 -35 38 -49
c49 -43 115 -55 181 -55h94c66 0 134 12 184 55c47 40 67 100 67 164c0 56 -15 113 -55 152c-43 42 -104 55 -165 55h-86c-92 0 -178 -49 -227 -128h-104z" />
    <glyph glyph-name="Aring" unicode="&#xc5;" horiz-adv-x="1077" 
d="M19 0l487 900h100l451 -900h-116l-172 343h-459l-186 -343h-105zM724 433l-176 350l-190 -350h366zM569 997c42 0 82 18 82 62c0 17 -7 33 -20 43c-17 13 -39 15 -60 15h-31c-21 0 -43 -2 -60 -15c-14 -10 -22 -28 -22 -46c0 -42 40 -59 80 -59h31zM572 1177
c40 0 80 -6 111 -31c25 -21 37 -53 37 -86c0 -36 -13 -69 -41 -91c-32 -25 -71 -32 -111 -32h-31c-40 0 -80 7 -111 32c-25 21 -37 53 -37 86c0 36 13 69 41 91c32 25 72 31 112 31h30z" />
    <glyph glyph-name="z" unicode="z" horiz-adv-x="718" 
d="M62 693l2 90h621l-2 -100l-509 -593h497l-2 -90h-621l2 100l510 593h-498z" />
    <glyph glyph-name="Ccedilla" unicode="&#xc7;" horiz-adv-x="1310" 
d="M831 -190c0 54 -79 64 -130 64h-127l43 105h-16c-138 0 -278 29 -378 122c-91 85 -127 210 -127 336c0 139 41 272 141 362c103 93 244 122 382 122h156c138 0 278 -29 378 -122c43 -40 74 -89 94 -143l-98 -39c-16 43 -40 83 -74 115c-79 75 -191 99 -301 99h-156
c-110 0 -223 -24 -305 -99c-80 -74 -112 -181 -112 -293c0 -101 27 -202 100 -271c79 -75 191 -99 301 -99h156c110 0 223 24 305 99c35 32 62 72 80 115l96 -39c-23 -54 -56 -103 -100 -143c-103 -93 -244 -122 -382 -122h-62l-14 -33h22c55 0 112 -5 158 -35
c33 -22 53 -59 53 -99c0 -43 -21 -82 -57 -104c-47 -30 -105 -35 -160 -35h-49c-55 0 -112 5 -158 35c-27 17 -46 45 -52 76l82 18c8 -48 78 -57 129 -57h50c52 0 132 10 132 65z" />
    <glyph glyph-name="Idotaccent" unicode="&#x130;" horiz-adv-x="415" 
d="M155 0l18 900h105l-18 -900h-105zM225 1102c21 0 41 -4 55 -19c14 -14 19 -34 19 -54c0 -22 -6 -43 -21 -58s-36 -20 -57 -20s-41 5 -55 20c-14 14 -19 33 -19 53c0 22 6 44 21 59s36 19 57 19z" />
    <glyph glyph-name="sterling" unicode="&#xa3;" horiz-adv-x="931" 
d="M86 549l2 90h164l1 73c1 60 27 119 75 155c59 44 133 54 205 54h66c72 0 146 -10 203 -54c28 -21 47 -50 58 -83l-99 -35c-7 21 -20 38 -38 51c-36 25 -81 31 -126 31h-66c-45 0 -90 -6 -127 -31c-29 -20 -46 -53 -47 -88l-1 -73h384l-2 -90h-384l-4 -207
c-2 -81 -19 -164 -74 -225c-9 -10 -19 -19 -29 -27h611l-2 -90h-781l2 90c49 0 95 25 122 66c37 55 46 121 47 186l4 207h-164z" />
    <glyph glyph-name="eight" unicode="8" horiz-adv-x="970" 
d="M439 69h94c64 0 131 9 184 47c43 31 66 82 66 136c0 51 -21 99 -61 129c-51 38 -118 46 -182 46h-93c-64 0 -131 -8 -184 -46c-43 -31 -66 -82 -66 -136c0 -51 21 -99 61 -129c51 -38 117 -47 181 -47zM438 -21c-92 0 -187 14 -259 70c-59 46 -87 118 -87 193
c0 81 32 157 95 205c28 21 60 37 93 48c-15 7 -30 15 -43 25c-47 35 -71 91 -71 150c0 72 24 141 78 187c58 50 136 64 212 64h94c76 0 154 -14 210 -64c50 -44 71 -109 71 -176c0 -65 -27 -124 -78 -161c-14 -10 -28 -18 -43 -25c32 -11 63 -27 90 -48
c59 -46 88 -118 88 -193c0 -81 -33 -157 -96 -205c-74 -56 -168 -70 -260 -70h-94zM542 517c48 0 98 9 135 41c34 29 49 74 49 120c0 42 -13 84 -44 112c-36 32 -85 41 -133 41h-94c-48 0 -98 -9 -135 -41c-34 -29 -49 -74 -49 -120c0 -42 13 -84 44 -112
c36 -32 85 -41 133 -41h94z" />
    <glyph glyph-name="Ntilde" unicode="&#xd1;" horiz-adv-x="1213" 
d="M136 0l18 900h100l721 -755l15 755h105l-18 -900h-100l-722 755l-15 -755h-104zM534 1018c-38 0 -101 -6 -102 -46h-83c1 37 19 72 50 93c40 27 89 33 137 33c60 0 114 -33 174 -33c38 0 101 6 102 46h84c-1 -37 -19 -72 -50 -93c-40 -27 -90 -33 -138 -33
c-60 0 -114 33 -174 33z" />
    <glyph glyph-name="Z" unicode="Z" horiz-adv-x="989" 
d="M65 810l1 90h893l-2 -100l-776 -710h762l-2 -90h-893l2 100l777 710h-762z" />
    <glyph glyph-name="T" unicode="T" horiz-adv-x="892" 
d="M23 810l2 90h878l-2 -90h-386l-17 -810h-104l16 810h-387z" />
    <glyph glyph-name="parenleft" unicode="(" horiz-adv-x="534" 
d="M395 -307c-66 37 -123 93 -168 158c-92 134 -133 296 -133 460c0 183 47 354 152 498c47 65 107 121 175 158l42 -80c-57 -32 -106 -84 -144 -142c-85 -129 -121 -276 -121 -434c0 -140 31 -278 104 -396c36 -58 82 -110 138 -142z" />
    <glyph glyph-name="Eacute" unicode="&#xc9;" horiz-adv-x="902" 
d="M136 0l18 900h698l-2 -90h-594l-3 -171h542l-2 -90h-542l-9 -459h594l-2 -90h-698zM588 1147h150l-212 -180h-111z" />
    <glyph glyph-name="zcaron" unicode="&#x17e;" horiz-adv-x="718" 
d="M62 693l2 90h621l-2 -100l-509 -593h497l-2 -90h-621l2 100l510 593h-498zM520 1194h114l-183 -180h-155l-176 180h114l141 -117z" />
    <glyph glyph-name="IJ" unicode="&#x132;" horiz-adv-x="1174" 
d="M1066 900l-13 -648c-2 -76 -26 -152 -84 -202c-63 -55 -147 -71 -229 -71h-78c-82 0 -166 16 -226 71c-20 18 -35 39 -47 62l93 49c8 -17 19 -31 33 -44c40 -36 95 -48 149 -48h77c54 0 111 12 152 48c38 34 54 84 55 135l13 648h105zM155 0l18 900h105l-18 -900h-105z
" />
    <glyph glyph-name="guilsinglleft" unicode="&#x2039;" horiz-adv-x="534" 
d="M211 392l235 -392h-116l-235 392l251 391h116z" />
    <glyph glyph-name="quotedblbase" unicode="&#x201e;" horiz-adv-x="892" 
d="M154 -180l151 292h112l-180 -292h-83zM639 112h113l-180 -292h-84z" />
    <glyph glyph-name="abreve" unicode="&#x103;" horiz-adv-x="912" 
d="M487 483c82 0 165 -24 212 -84l2 84v9c0 59 -14 119 -53 162s-97 60 -156 60h-82c-59 0 -118 -17 -159 -60c-14 -15 -25 -31 -34 -49l-93 44c13 26 30 51 51 72c62 61 150 83 237 83h81c87 0 174 -22 234 -83c58 -59 78 -143 78 -227v-11l-10 -483h-104l1 63
c-49 -59 -133 -84 -215 -84h-82c-84 0 -169 14 -234 66c-54 43 -79 110 -79 180c0 76 29 148 87 193c67 52 152 65 236 65h82zM726 1177c-1 -47 -25 -91 -65 -117c-53 -34 -117 -41 -180 -41h-60c-63 0 -126 7 -178 41c-39 26 -62 70 -61 117h84c-1 -25 17 -47 40 -58
c36 -18 76 -20 116 -20h61c40 0 81 2 117 20c23 11 42 33 43 58h83zM485 393h-81c-56 0 -114 -8 -159 -42c-38 -29 -58 -74 -58 -123c0 -45 17 -90 53 -117c44 -34 101 -42 157 -42h82c56 0 114 8 159 42c38 28 58 75 58 122c0 45 -18 90 -54 118c-44 34 -101 42 -157 42z
" />
    <glyph glyph-name="G" unicode="G" horiz-adv-x="1387" 
d="M1271 0h-105l4 164c-18 -31 -42 -58 -70 -82c-95 -80 -220 -103 -343 -103h-156c-138 0 -278 29 -378 122c-91 85 -127 210 -127 336c0 139 41 272 141 362c103 93 244 122 382 122h156c138 0 278 -29 378 -122c33 -31 59 -67 78 -106l-94 -48c-15 32 -35 62 -62 87
c-79 75 -191 99 -301 99h-156c-110 0 -223 -24 -305 -99c-80 -74 -112 -181 -112 -293c0 -101 27 -202 100 -271c79 -75 191 -99 301 -99h156c107 0 218 15 305 79c71 52 109 138 111 226l3 175h-487l2 90h591z" />
    <glyph glyph-name="h" unicode="h" horiz-adv-x="883" 
d="M126 0l19 950h105l-5 -249c6 8 12 16 19 24c52 56 129 79 205 79h70c71 0 142 -24 186 -79c48 -59 61 -136 61 -212v-13l-10 -500h-104l10 500v12c0 52 -8 104 -36 146c-24 36 -64 56 -108 56h-71c-60 0 -122 -14 -166 -56c-43 -41 -60 -99 -61 -158l-10 -500h-104z" />
    <glyph glyph-name="aacute" unicode="&#xe1;" horiz-adv-x="912" 
d="M487 483c82 0 165 -24 212 -84l2 84v9c0 59 -14 119 -53 162s-97 60 -156 60h-82c-59 0 -118 -17 -159 -60c-14 -15 -25 -31 -34 -49l-93 44c13 26 30 51 51 72c62 61 150 83 237 83h81c87 0 174 -22 234 -83c58 -59 78 -143 78 -227v-11l-10 -483h-104l1 63
c-49 -59 -133 -84 -215 -84h-82c-84 0 -169 14 -234 66c-54 43 -79 110 -79 180c0 76 29 148 87 193c67 52 152 65 236 65h82zM540 1194h150l-213 -180h-111zM485 393h-81c-56 0 -114 -8 -159 -42c-38 -29 -58 -74 -58 -123c0 -45 17 -90 53 -117c44 -34 101 -42 157 -42h82
c56 0 114 8 159 42c38 28 58 75 58 122c0 45 -18 90 -54 118c-44 34 -101 42 -157 42z" />
    <glyph glyph-name="eacute" unicode="&#xe9;" horiz-adv-x="960" 
d="M862 157c-15 -32 -35 -63 -62 -88c-71 -68 -170 -90 -267 -90h-97c-100 0 -199 32 -263 107c-67 79 -88 184 -88 289c0 120 23 235 100 322c67 75 168 107 268 107h97c100 0 199 -32 263 -107c67 -79 87 -184 87 -289v-16l-1 -46h-709c3 -70 19 -138 61 -193
c44 -57 115 -84 187 -84h97c69 0 140 18 190 67c19 19 32 40 43 63zM588 1194h150l-212 -180h-111zM795 436c-3 70 -19 139 -61 194c-44 57 -114 84 -186 84h-97c-72 0 -144 -27 -190 -84c-44 -55 -63 -124 -69 -194h603z" />
    <glyph glyph-name="Scaron" unicode="&#x160;" horiz-adv-x="1009" 
d="M94 161l100 34c10 -33 31 -62 60 -81c57 -38 127 -45 196 -45h102c70 0 142 5 202 43c45 29 68 81 68 135c0 73 -55 134 -127 135l-366 54c-118 2 -207 103 -207 222c0 78 28 155 89 200c75 55 169 63 261 63h92c90 0 182 -13 253 -67c34 -26 58 -61 72 -100l-100 -31
c-10 26 -27 48 -50 64c-51 36 -114 44 -177 44h-92c-64 0 -129 -5 -182 -41c-42 -29 -61 -78 -61 -130c0 -69 40 -133 105 -134l367 -54c126 -2 227 -100 227 -224c0 -81 -30 -159 -95 -204c-81 -57 -183 -65 -281 -65h-102c-97 0 -195 13 -273 69c-39 28 -67 68 -81 113z
M660 1147h115l-184 -180h-154l-177 180h115l140 -116z" />
    <glyph glyph-name="greater" unicode="&#x3e;" horiz-adv-x="951" 
d="M751 392l-660 290l2 112l789 -346l-2 -113l-803 -346l3 112z" />
    <glyph glyph-name="oe" unicode="&#x153;" horiz-adv-x="1533" 
d="M1438 157c-14 -32 -32 -62 -57 -88c-63 -65 -155 -90 -245 -90h-85c-93 0 -184 34 -240 107c-12 16 -23 33 -32 51c-10 -18 -21 -35 -34 -51c-59 -73 -152 -107 -245 -107h-85c-93 0 -185 34 -241 107c-62 80 -79 183 -79 286c0 120 18 235 91 325c59 73 152 107 245 107
h85c93 0 185 -34 241 -107c12 -16 23 -33 32 -51c10 18 21 35 34 51c59 73 152 107 245 107h85c93 0 184 -34 240 -107c62 -80 80 -183 80 -286v-19l-1 -46h-636c2 -69 15 -136 53 -193c36 -54 98 -84 164 -84h85c62 0 125 20 167 67c16 18 28 38 37 60zM515 714h-86
c-66 0 -129 -30 -167 -84c-53 -74 -63 -162 -63 -257c0 -78 11 -156 54 -220c36 -54 98 -84 164 -84h85c66 0 129 30 167 84c53 74 63 162 63 257c0 78 -11 156 -54 220c-36 54 -97 84 -163 84zM1368 436c-2 69 -15 137 -53 194c-36 54 -98 84 -164 84h-85
c-66 0 -129 -30 -167 -84c-40 -57 -56 -125 -61 -194h530z" />
    <glyph glyph-name="Nacute" unicode="&#x143;" horiz-adv-x="1213" 
d="M136 0l18 900h100l721 -755l15 755h105l-18 -900h-100l-722 755l-15 -755h-104zM709 1147h150l-212 -180h-111z" />
    <glyph glyph-name="lacute" unicode="&#x13a;" horiz-adv-x="337" 
d="M116 0l19 950h105l-19 -950h-105zM290 1188h150l-212 -180h-111z" />
    <glyph glyph-name="less" unicode="&#x3c;" horiz-adv-x="951" 
d="M215 392l660 -291l-2 -112l-789 346l3 113l802 346l-2 -112z" />
    <glyph glyph-name="asciicircum" unicode="^" horiz-adv-x="1048" 
d="M540 812l-339 -452h-128l405 540h128l383 -540h-128z" />
    <glyph glyph-name="seven" unicode="7" 
d="M94 810l2 90h746l-2 -100l-519 -800h-117l526 810h-636z" />
    <glyph glyph-name="Ocircumflex" unicode="&#xd4;" horiz-adv-x="1358" 
d="M774 831h-156c-110 0 -223 -24 -305 -99c-80 -74 -112 -181 -112 -293c0 -101 27 -202 100 -271c79 -75 191 -99 301 -99h156c110 0 223 24 305 99c80 74 112 181 112 293c0 101 -27 202 -100 271c-79 75 -191 99 -301 99zM775 921c138 0 278 -29 378 -122
c91 -85 127 -210 127 -336c0 -139 -41 -272 -141 -362c-103 -93 -244 -122 -382 -122h-156c-138 0 -278 29 -378 122c-91 85 -127 210 -127 336c0 139 41 272 141 362c103 93 244 122 382 122h156zM696 1084l-145 -117h-115l184 180h154l177 -180h-115z" />
    <glyph glyph-name="F" unicode="F" horiz-adv-x="873" 
d="M136 0l18 900h698l-2 -90h-594l-3 -171h542l-2 -90h-542l-11 -549h-104z" />
    <glyph glyph-name="tilde" unicode="&#x2dc;" horiz-adv-x="407" 
d="M132 770c-38 0 -101 -6 -102 -46h-84c1 37 19 73 50 94c40 27 89 32 137 32c60 0 114 -32 174 -32c38 0 102 6 103 46h83c-1 -37 -19 -72 -50 -93c-40 -27 -89 -33 -137 -33c-60 0 -114 32 -174 32z" />
    <glyph glyph-name="iacute" unicode="&#xed;" horiz-adv-x="369" 
d="M132 0l16 783h104l-16 -783h-104zM287 1194h150l-212 -180h-111z" />
    <glyph glyph-name="Otilde" unicode="&#xd5;" horiz-adv-x="1358" 
d="M607 1018c-38 0 -101 -6 -102 -46h-84c1 37 19 72 50 93c40 27 90 33 138 33c60 0 114 -33 174 -33c38 0 101 6 102 46h83c-1 -37 -19 -72 -50 -93c-40 -27 -89 -33 -137 -33c-60 0 -114 33 -174 33zM774 831h-156c-110 0 -223 -24 -305 -99c-80 -74 -112 -181 -112 -293
c0 -101 27 -202 100 -271c79 -75 191 -99 301 -99h156c110 0 223 24 305 99c80 74 112 181 112 293c0 101 -27 202 -100 271c-79 75 -191 99 -301 99zM775 921c138 0 278 -29 378 -122c91 -85 127 -210 127 -336c0 -139 -41 -272 -141 -362c-103 -93 -244 -122 -382 -122
h-156c-138 0 -278 29 -378 122c-91 85 -127 210 -127 336c0 139 41 272 141 362c103 93 244 122 382 122h156z" />
    <glyph glyph-name="parenright" unicode=")" horiz-adv-x="534" 
d="M137 -307l-43 79c56 32 103 85 139 143c82 130 116 277 116 435c0 139 -29 276 -99 395c-34 58 -79 111 -134 143l47 79c64 -37 118 -94 161 -158c89 -135 129 -296 129 -459c0 -183 -46 -353 -148 -499c-45 -64 -102 -121 -168 -158z" />
    <glyph glyph-name="germandbls" unicode="&#xdf;" horiz-adv-x="960" 
d="M762 691c0 -65 -15 -129 -57 -176c29 -11 58 -27 82 -48c57 -49 82 -124 82 -200c0 -80 -19 -159 -73 -215c-50 -53 -124 -73 -196 -73h-86c-72 0 -145 20 -193 73c-18 19 -30 41 -40 65l96 41c6 -14 13 -27 23 -39c28 -34 71 -50 116 -50h86c45 0 89 16 118 50
c34 40 44 92 44 145c0 52 -17 103 -56 136c-45 39 -106 50 -166 50h-126l2 90h126c32 0 63 13 83 38c24 31 31 71 31 111s-15 79 -45 104c-36 30 -83 38 -130 38h-68c-47 0 -95 -8 -132 -38c-32 -26 -47 -66 -48 -107l-14 -686h-105l14 686c1 66 25 132 77 174
c58 48 135 61 210 61h68c75 0 151 -13 207 -61c48 -41 70 -105 70 -169z" />
    <glyph glyph-name="a" unicode="a" horiz-adv-x="912" 
d="M487 483c82 0 165 -24 212 -84l2 84v9c0 59 -14 119 -53 162s-97 60 -156 60h-82c-59 0 -118 -17 -159 -60c-14 -15 -25 -31 -34 -49l-93 44c13 26 30 51 51 72c62 61 150 83 237 83h81c87 0 174 -22 234 -83c58 -59 78 -143 78 -227v-11l-10 -483h-104l1 63
c-49 -59 -133 -84 -215 -84h-82c-84 0 -169 14 -234 66c-54 43 -79 110 -79 180c0 76 29 148 87 193c67 52 152 65 236 65h82zM485 393h-81c-56 0 -114 -8 -159 -42c-38 -29 -58 -74 -58 -123c0 -45 17 -90 53 -117c44 -34 101 -42 157 -42h82c56 0 114 8 159 42
c38 28 58 75 58 122c0 45 -18 90 -54 118c-44 34 -101 42 -157 42z" />
    <glyph glyph-name="scedilla" unicode="&#x15f;" horiz-adv-x="776" 
d="M540 -190c0 54 -79 64 -130 64h-127l44 105c-69 3 -139 18 -192 61c-33 27 -54 64 -65 105l101 28c7 -26 21 -49 43 -66c39 -30 89 -38 139 -38h72c50 0 103 4 144 35c34 26 49 68 49 112c0 57 -32 110 -86 117l-263 31c-100 12 -168 104 -168 207c0 67 18 134 69 177
c56 47 131 56 203 56h62c71 0 144 -13 197 -59c29 -25 47 -59 57 -95l-101 -29c-6 22 -18 42 -35 57c-32 28 -77 36 -120 36h-62c-44 0 -89 -6 -123 -34c-31 -26 -42 -67 -42 -109c0 -56 25 -111 76 -117l263 -31c103 -13 177 -101 177 -205c0 -70 -21 -140 -75 -182
c-62 -49 -144 -57 -223 -57h-20l-14 -33h22c55 0 112 -5 158 -35c33 -22 53 -59 53 -99c0 -43 -21 -82 -57 -104c-47 -30 -105 -35 -160 -35h-49c-55 0 -112 5 -158 35c-27 17 -46 45 -52 76l82 18c8 -48 78 -57 129 -57h50c52 0 132 10 132 65z" />
    <glyph glyph-name="ugrave" unicode="&#xf9;" 
d="M821 783l-16 -783h-104l1 78c-5 -7 -10 -14 -15 -20c-48 -55 -120 -79 -192 -79h-79c-84 0 -169 20 -228 79c-56 56 -76 136 -76 216v9l10 500h105l-10 -500v-7c0 -56 12 -111 50 -151c38 -41 95 -56 151 -56h78c56 0 114 15 154 56c41 42 55 100 56 158l10 500h105z
M239 1194h150l166 -180h-111z" />
    <glyph glyph-name="uacute" unicode="&#xfa;" 
d="M821 783l-16 -783h-104l1 78c-5 -7 -10 -14 -15 -20c-48 -55 -120 -79 -192 -79h-79c-84 0 -169 20 -228 79c-56 56 -76 136 -76 216v9l10 500h105l-10 -500v-7c0 -56 12 -111 50 -151c38 -41 95 -56 151 -56h78c56 0 114 15 154 56c41 42 55 100 56 158l10 500h105z
M559 1194h150l-212 -180h-111z" />
    <glyph glyph-name="Ncaron" unicode="&#x147;" horiz-adv-x="1213" 
d="M136 0l18 900h100l721 -755l15 755h105l-18 -900h-100l-722 755l-15 -755h-104zM767 1147h114l-183 -180h-155l-176 180h114l141 -116z" />
    <glyph glyph-name="one" unicode="1" horiz-adv-x="660" 
d="M326 0l16 783l-251 -133l2 115l255 135h100l-18 -900h-104z" />
    <glyph glyph-name="f" unicode="f" horiz-adv-x="572" 
d="M507 856c0 23 -45 25 -67 25h-26c-22 0 -68 -2 -68 -25l-2 -73h169l-2 -90h-168l-14 -693h-105l14 693h-168l1 90h169l1 73c1 34 18 66 47 85c38 25 83 30 128 30h26c67 0 137 -17 161 -70z" />
    <glyph glyph-name="Ugrave" unicode="&#xd9;" horiz-adv-x="1152" 
d="M1040 900l-12 -607c-2 -89 -36 -176 -106 -232c-82 -65 -189 -82 -292 -82h-109c-103 0 -209 17 -288 82c-66 54 -97 138 -97 225v7l12 607h104l-12 -607v-5c0 -62 24 -123 72 -161c59 -47 135 -58 211 -58h109c76 0 154 11 214 58c51 39 77 102 78 166l12 607h104z
M359 1147h150l166 -180h-111z" />
    <glyph glyph-name="macron" unicode="&#xaf;" horiz-adv-x="407" 
d="M-27 748l2 79h491l-2 -79h-491z" />
    <glyph glyph-name="dash" horiz-adv-x="611" 
d="M85 346l1 90h456l-2 -90h-455z" />
    <glyph glyph-name="thorn" unicode="&#xfe;" horiz-adv-x="989" 
d="M110 -300l24 1200h105l-5 -244c8 14 16 28 26 41c52 70 136 107 223 107h94c98 0 196 -32 258 -107c66 -79 85 -184 85 -288c0 -120 -22 -235 -98 -323c-65 -75 -163 -107 -261 -107h-94c-87 0 -170 37 -219 107c-9 13 -18 27 -25 41l-8 -427h-105zM575 714h-94
c-71 0 -140 -28 -184 -84c-53 -67 -66 -153 -68 -238v-1c0 -5 -1 -11 -1 -16c0 -80 13 -159 60 -222c42 -56 110 -84 181 -84h93c71 0 140 28 184 84c56 71 69 161 69 255c0 80 -12 159 -59 222c-42 56 -110 84 -181 84z" />
    <glyph glyph-name="space" unicode=" " horiz-adv-x="582" 
 />
    </font>
</defs>
</svg>
